SplineFontDB: 3.0
FontName: StickNoBills
FullName: Stick No Bills
FamilyName: Stick No Bills
Weight: Regular
Copyright: Copyright (c) 2013, STICK NO BILLS\nCopyright (c) 2015, mooniak\n
UComments: "2015-2-15: Created with FontForge (http://fontforge.org)"
Version: 1.0.1
ItalicAngle: 0
UnderlinePosition: -102
UnderlineWidth: 51
Ascent: 819
Descent: 205
InvalidEm: 0
LayerCount: 2
Layer: 0 0 "Back" 1
Layer: 1 0 "Fore" 0
XUID: [1021 792 -450466945 9124014]
FSType: 0
OS2Version: 0
OS2_WeightWidthSlopeOnly: 0
OS2_UseTypoMetrics: 1
CreationTime: 1423989519
ModificationTime: 1428215055
PfmFamily: 81
TTFWeight: 400
TTFWidth: 5
LineGap: 94
VLineGap: 0
OS2TypoAscent: 0
OS2TypoAOffset: 1
OS2TypoDescent: 0
OS2TypoDOffset: 1
OS2TypoLinegap: 94
OS2WinAscent: 0
OS2WinAOffset: 1
OS2WinDescent: 0
OS2WinDOffset: 1
HheadAscent: 0
HheadAOffset: 1
HheadDescent: 0
HheadDOffset: 1
OS2CapHeight: 0
OS2XHeight: 0
OS2Vendor: 'PfEd'
OS2UnicodeRanges: 00000002.00000000.00000000.00000000
Lookup: 258 0 0 "'kern' Horizontal Kerning lookup 0" { "'kern' Horizontal Kerning lookup 0-1" [153,15,0] "'kern' Horizontal Kerning lookup 0-2" [153,15,0] "'kern' Horizontal Kerning lookup 0-3" [153,15,0] "'kern' Horizontal Kerning lookup 0-4" [153,15,0] "'kern' Horizontal Kerning lookup 0-5" [153,15,0] "'kern' Horizontal Kerning lookup 0-6" [153,15,0] "'kern' Horizontal Kerning lookup 0-7" [153,15,0] "'kern' Horizontal Kerning lookup 0-8" [153,15,0] "'kern' Horizontal Kerning lookup 0-9" [153,15,0] "'kern' Horizontal Kerning lookup 0-10" [153,15,0] "'kern' Horizontal Kerning lookup 0-5" [153,15,0] } ['kern' ('DFLT' <'dflt' > 'hani' <'dflt' > 'latn' <'dflt' > ) ]
MarkAttachClasses: 1
DEI: 91125
KernClass2: 5 12 "'kern' Horizontal Kerning lookup 0-5"
 1 W
 1 Y
 1 V
 0 
 1 a
 1 e
 1 o
 1 d
 1 q
 1 s
 1 c
 1 g
 1 x
 1 y
 1 z

StartChar: A
Encoding: 65 65 0
Width: 516
VWidth: 0
Flags: W
HStem: 0 21G<26 172.988 352.912 490.297> 0 21G<26 172.988 352.912 490.297> 679 20G<361.171 500.377> 679 20G<361.171 500.377>
VStem: 353 137<0 85 223 482.842> 361.377 139<223 699>
LayerCount: 2
Back
Fore
SplineSet
289.365234375 582 m 5x80
 304.365234375 582 l 5
 299.72265625 302 l 5
 164 0 l 5
 26 0 l 5
 289.365234375 582 l 5x80
361.376953125 699 m 1xa4
 500.376953125 699 l 1xa4
 490 0 l 1
 353 0 l 1xa8
 352.624023438 85 l 1
 258.624023438 85 l 1
 320.483398438 223 l 1
 356.483398438 223 l 1
 361.376953125 699 l 1xa4
EndSplineSet
EndChar

StartChar: B
Encoding: 66 66 1
Width: 484
VWidth: 0
Flags: W
HStem: -2 124<249.166 328.85> 577 123<382.607 420.727>
LayerCount: 2
Back
Fore
SplineSet
249.166015625 122 m 1
 336.166015625 122 365.325195312 179 371.328125 205 c 0
 376.407226562 227 377.720703125 289 287.720703125 289 c 1
 315.88671875 411 l 1
 375.88671875 411 424.966796875 446 436.741210938 497 c 0
 448.28515625 547 412.98046875 576 354.2109375 577 c 1
 382.607421875 700 l 1
 390.838867188 701 398.838867188 701 406.838867188 701 c 0
 558.838867188 701 586.518554688 574 572.666015625 514 c 0
 572.666015625 514 572.435546875 513 572.435546875 513 c 0
 550.1953125 421 507.268554688 378 466.265625 352 c 1
 497.33984375 322 523.797851562 285 504.404296875 201 c 0
 503.942382812 199 503.711914062 198 503.481445312 197 c 0
 476.854492188 86 365.538085938 -2 248.538085938 -2 c 0
 239.538085938 -2 229.76953125 -1 221 0 c 1
 249.166015625 122 l 1
187.607421875 700 m 1
 328.607421875 700 l 1
 167 0 l 1
 26 0 l 1
 187.607421875 700 l 1
EndSplineSet
EndChar

StartChar: D
Encoding: 68 68 2
Width: 452
VWidth: 0
Flags: W
HStem: 0 21G<32 177.617 231.617 257> 0 21G<32 177.617 231.617 257> 680 20G<188.99 334.607 383.99 460.107>
LayerCount: 2
Back
Fore
SplineSet
227 0 m 1x60
 259.552734375 141 l 1
 265.552734375 141 316.399414062 149 328.481445312 197 c 2
 399.126953125 503 l 1
 400.28125 508 403.82421875 558 356.055664062 559 c 1
 388.607421875 700 l 1
 531.607421875 700 554.671875 566 540.126953125 503 c 1
 469.481445312 197 l 1
 435.54296875 50 287 0 227 0 c 1x60
193.607421875 700 m 1
 334.607421875 700 l 1
 173 0 l 1
 32 0 l 1xa0
 193.607421875 700 l 1
EndSplineSet
EndChar

StartChar: I
Encoding: 73 73 3
Width: 209
VWidth: 0
Flags: W
HStem: 0 21G<34 179.617> 0 21G<34 179.617> 680 20G<190.99 336.607>
VStem: 34 302.607
LayerCount: 2
Back
Fore
SplineSet
195.607421875 700 m 1xb0
 336.607421875 700 l 1
 175 0 l 1
 34 0 l 1
 195.607421875 700 l 1xb0
EndSplineSet
EndChar

StartChar: L
Encoding: 76 76 4
Width: 428
VWidth: 0
Flags: W
HStem: 0 139<199.091 402> 680 20G<182.99 328.607>
LayerCount: 2
Back
Fore
SplineSet
434.090820312 139 m 1
 402 0 l 1
 26 0 l 1
 187.607421875 700 l 1
 328.607421875 700 l 1
 199.090820312 139 l 1
 434.090820312 139 l 1
EndSplineSet
EndChar

StartChar: T
Encoding: 84 84 5
Width: 485
VWidth: 0
Flags: W
HStem: 0 21G<172 317.617> 0 21G<172 317.617> 562 138<187.607 301.748 442.748 588.748>
LayerCount: 2
Back
Fore
SplineSet
620.607421875 700 m 1xa0
 588.748046875 562 l 1
 442.748046875 562 l 1
 313 0 l 1
 172 0 l 1
 301.748046875 562 l 1
 155.748046875 562 l 1
 187.607421875 700 l 1
 620.607421875 700 l 1xa0
EndSplineSet
EndChar

StartChar: K
Encoding: 75 75 6
Width: 475
VWidth: 0
Flags: W
HStem: 0 21G<26 171.617 317.048 457> 0 21G<26 171.617 317.048 457> 680 20G<182.99 328.607 465.029 614.607>
LayerCount: 2
Back
Fore
SplineSet
475.607421875 700 m 5xa0
 614.607421875 700 l 5
 425.725585938 341 l 5
 457 0 l 5
 319 0 l 5
 285.725585938 341 l 5
 475.607421875 700 l 5xa0
187.607421875 700 m 1
 328.607421875 700 l 1
 167 0 l 1
 26 0 l 1
 187.607421875 700 l 1
EndSplineSet
EndChar

StartChar: P
Encoding: 80 80 7
Width: 474
VWidth: 0
Flags: W
HStem: 0 21G<26 171.617> 0 21G<26 171.617> 318 139<326.507 404.098> 680 20G<182.99 328.607 377.99 473.107>
LayerCount: 2
Back
Fore
SplineSet
326.506835938 457 m 1x30
 359.506835938 457 l 2
 366.506835938 457 410.737304688 458 422.28125 508 c 0
 434.055664062 559 392.516601562 561 383.516601562 561 c 2
 350.516601562 561 l 1
 382.607421875 700 l 1
 563.607421875 700 592.5234375 626 566.204101562 512 c 0
 533.190429688 369 451.416015625 318 294.416015625 318 c 1
 326.506835938 457 l 1x30
187.607421875 700 m 1
 328.607421875 700 l 1
 167 0 l 1
 26 0 l 1xb0
 187.607421875 700 l 1
EndSplineSet
EndChar

StartChar: M
Encoding: 77 77 8
Width: 676
VWidth: 0
Flags: W
HStem: 0 21G<32 177.617 281.295 395.492 503 648.617> 0 21G<32 177.617 281.295 395.492 503 648.617> 680 20G<188.99 307.241 659.99 805.607>
VStem: 134.506 9<412.952 444>
LayerCount: 2
Back
Fore
SplineSet
32 0 m 1xb0
 134.505859375 444 l 1
 143.505859375 444 l 1
 202.3203125 127 l 1
 173 0 l 1
 32 0 l 1xb0
193.607421875 700 m 1
 303.607421875 700 l 1
 387.715820312 237 l 1
 548.893554688 476 l 1
 558.893554688 476 l 1
 483.861328125 151 l 1
 382 0 l 1
 285 0 l 1
 172.368164062 608 l 1
 193.607421875 700 l 1
664.607421875 700 m 1
 805.607421875 700 l 1
 644 0 l 1
 503 0 l 1
 664.607421875 700 l 1
EndSplineSet
EndChar

StartChar: R
Encoding: 82 82 9
Width: 495
VWidth: 0
Flags: W
HStem: 0 21G<32 177.617 343 472.051> 0 21G<32 177.617 343 472.051> 680 20G<188.99 334.607 383.99 463.607>
LayerCount: 2
Back
Fore
SplineSet
321.88671875 411 m 1xa0
 334.88671875 411 l 2
 394.88671875 411 429.198242188 447 438.6640625 488 c 0
 449.745117188 536 419.90234375 567 370.90234375 567 c 2
 357.90234375 567 l 1
 388.607421875 700 l 1
 538.607421875 700 595.21484375 616 567.510742188 496 c 0
 551.811523438 428 519.9609375 381 467.265625 352 c 1
 497.032226562 325 509.526367188 265.701171875 502.098632812 217 c 2
 469 0 l 1
 343 0 l 1
 369.094726562 178 l 2
 380.739257812 257.435546875 363.797851562 285 293.028320312 286 c 1
 321.88671875 411 l 1xa0
193.607421875 700 m 1
 334.607421875 700 l 1
 173 0 l 1
 32 0 l 1
 193.607421875 700 l 1
EndSplineSet
EndChar

StartChar: J
Encoding: 74 74 10
Width: 495
VWidth: 0
Flags: W
HStem: 680 20G<479.99 624.607>
LayerCount: 2
Back
Fore
SplineSet
211.845703125 -5 m 1
 151.845703125 -5 38.466796875 54 70.5576171875 193 c 1
 81.8701171875 242 l 1
 222.870117188 242 l 1
 211.557617188 193 l 2
 201.9375 147 239.62890625 137 244.62890625 137 c 1
 211.845703125 -5 l 1
265.845703125 -5 m 1
 298.62890625 137 l 1
 303.62890625 137 355.9375 147 367.557617188 193 c 2
 484.607421875 700 l 1
 624.607421875 700 l 1
 507.557617188 193 l 1
 474.3125 49 325.845703125 -5 265.845703125 -5 c 1
EndSplineSet
EndChar

StartChar: C
Encoding: 67 67 11
Width: 494
VWidth: 0
Flags: W
HStem: 685 20G<320.262 387.144 441.144 491.762>
LayerCount: 2
Back
Fore
SplineSet
413.209960938 564 m 5
 445.76171875 705 l 5
 537.76171875 705 609.291015625 612 587.127929688 516 c 5
 440.81640625 480 l 5
 444.279296875 495 l 6
 447.51171875 509 450.051757812 520 447.822265625 532 c 4
 443.131835938 555 413.209960938 564 413.209960938 564 c 5
314.3984375 136 m 1
 314.3984375 136 348.013671875 143 363.32421875 166 c 0
 371.094726562 178 373.633789062 189 376.866210938 203 c 2
 379.63671875 215 l 1
 510.017578125 182 l 1
 485.545898438 76 373.845703125 -5 281.845703125 -5 c 1
 314.3984375 136 l 1
391.76171875 705 m 1
 359.209960938 564 l 1
 312.978515625 563 293.744140625 523 292.58984375 518 c 1
 214.787109375 181 l 1
 213.6328125 176 214.3984375 136 260.3984375 136 c 1
 227.845703125 -5 l 1
 84.845703125 -5 59.9345703125 121 73.787109375 181 c 1
 151.58984375 518 l 1
 165.44140625 578 248.76171875 705 391.76171875 705 c 1
EndSplineSet
EndChar

StartChar: U
Encoding: 85 85 12
Width: 512
VWidth: 0
Flags: W
HStem: 680 20G<188.99 334.607 495.99 640.607>
LayerCount: 2
Back
Fore
SplineSet
227.845703125 -5 m 1
 167.845703125 -5 43.3125 49 76.5576171875 193 c 1
 193.607421875 700 l 1
 334.607421875 700 l 1
 217.557617188 193 l 2
 207.9375 147 255.62890625 137 260.62890625 137 c 1
 227.845703125 -5 l 1
524.557617188 193 m 1
 491.3125 49 341.845703125 -5 281.845703125 -5 c 1
 314.62890625 137 l 1
 319.62890625 137 371.9375 147 383.557617188 193 c 2
 500.607421875 700 l 1
 640.607421875 700 l 1
 523.557617188 193 l 1
 524.557617188 193 l 1
EndSplineSet
EndChar

StartChar: E
Encoding: 69 69 13
Width: 422
VWidth: 0
Flags: W
HStem: 0 141<205.553 396> 277 141<269.503 365.95> 560 140<302.286 525.286>
LayerCount: 2
Back
Fore
SplineSet
428.552734375 141 m 1
 396 0 l 1
 32 0 l 1
 193.607421875 700 l 1
 557.607421875 700 l 1
 525.286132812 560 l 1
 302.286132812 560 l 1
 269.502929688 418 l 1
 398.502929688 418 l 1
 365.950195312 277 l 1
 236.950195312 277 l 1
 205.552734375 141 l 1
 428.552734375 141 l 1
EndSplineSet
EndChar

StartChar: O
Encoding: 79 79 14
Width: 508
VWidth: 0
Flags: W
HStem: 685 20G<323.762 385.144 439.144 509.262>
LayerCount: 2
Back
Fore
SplineSet
224.845703125 -5 m 5
 164.845703125 -5 41.7744140625 51 75.01953125 195 c 6
 150.974609375 524 l 6
 164.827148438 584 257.76171875 705 389.76171875 705 c 5
 357.209960938 564 l 5
 310.978515625 563 289.435546875 513 288.28125 508 c 6
 216.01953125 195 l 6
 205.399414062 149 252.62890625 137 257.62890625 137 c 5
 224.845703125 -5 l 5
279.845703125 -5 m 5
 312.62890625 137 l 5
 317.62890625 137 370.399414062 149 382.01953125 195 c 6
 454.28125 508 l 6
 455.435546875 513 456.978515625 563 411.209960938 564 c 5
 443.76171875 705 l 5
 574.76171875 705 612.595703125 583 598.974609375 524 c 6
 523.01953125 195 l 6
 489.774414062 51 339.845703125 -5 279.845703125 -5 c 5
EndSplineSet
EndChar

StartChar: F
Encoding: 70 70 15
Width: 422
VWidth: 0
Flags: W
HStem: 1 21G<32.2305 177.848> 1 21G<32.2305 177.848> 277 141<269.503 365.95> 560 140<302.286 525.286>
LayerCount: 2
Back
Fore
SplineSet
398.502929688 418 m 1xb0
 365.950195312 277 l 1
 236.950195312 277 l 1
 173.23046875 1 l 1
 32.23046875 1 l 1
 193.607421875 700 l 1
 557.607421875 700 l 1
 525.286132812 560 l 1
 302.286132812 560 l 1
 269.502929688 418 l 1
 398.502929688 418 l 1xb0
EndSplineSet
EndChar

StartChar: H
Encoding: 72 72 16
Width: 458
VWidth: 0
Flags: W
HStem: 0 21G<32 177.617 285 430.617> 0 21G<32 177.617 285 430.617> 680 20G<188.99 334.607 441.99 587.607>
LayerCount: 2
Back
Fore
SplineSet
299.1953125 421 m 1xa0
 267.3359375 283 l 1
 238.3359375 283 l 1
 173 0 l 1
 32 0 l 1
 193.607421875 700 l 1
 334.607421875 700 l 1
 270.1953125 421 l 1
 299.1953125 421 l 1xa0
446.607421875 700 m 1
 587.607421875 700 l 1
 426 0 l 1
 285 0 l 1
 350.3359375 283 l 1
 321.3359375 283 l 1
 353.1953125 421 l 1
 382.1953125 421 l 1
 446.607421875 700 l 1
EndSplineSet
EndChar

StartChar: Q
Encoding: 81 81 17
Width: 500
VWidth: 0
Flags: W
HStem: 685 20G<319.762 381.144 435.144 505.262>
LayerCount: 2
Back
Fore
SplineSet
220.845703125 -5 m 1
 160.845703125 -5 37.7744140625 51 71.01953125 195 c 2
 146.974609375 524 l 2
 160.827148438 584 253.76171875 705 385.76171875 705 c 1
 353.209960938 564 l 1
 306.978515625 563 285.435546875 513 284.28125 508 c 2
 212.01953125 195 l 2
 201.399414062 149 248.62890625 137 253.62890625 137 c 1
 220.845703125 -5 l 1
415.850585938 47 m 1
 452.612304688 -32 l 1
 323.296875 -107 l 1
 275.845703125 -5 l 1
 308.62890625 137 l 1
 313.62890625 137 366.399414062 149 378.01953125 195 c 2
 450.28125 508 l 2
 451.435546875 513 452.978515625 563 407.209960938 564 c 1
 439.76171875 705 l 1
 570.76171875 705 608.595703125 583 594.974609375 524 c 2
 519.01953125 195 l 2
 503.3203125 127 462.23828125 79 415.850585938 47 c 1
EndSplineSet
EndChar

StartChar: G
Encoding: 71 71 18
Width: 493
VWidth: 0
Flags: W
HStem: 685 20G<318.762 380.144 434.144 485.262>
LayerCount: 2
Back
Fore
SplineSet
406.209960938 564 m 1
 438.76171875 705 l 1
 531.76171875 705 602.291015625 612 580.127929688 516 c 1
 430.353515625 465 l 1
 437.279296875 495 l 2
 440.51171875 509 443.051757812 520 440.822265625 532 c 0
 436.131835938 555 406.209960938 564 406.209960938 564 c 1
542.49609375 353 m 1
 501.6328125 176 l 2
 482.932617188 95 357.076171875 -4 274.845703125 -5 c 1
 307.3984375 136 l 1
 313.3984375 136 354.784179688 155 362.865234375 190 c 2
 370.483398438 223 l 1
 327.483398438 223 l 1
 357.49609375 353 l 1
 542.49609375 353 l 1
220.845703125 -5 m 1
 160.845703125 -5 37.08203125 48 70.3271484375 192 c 1
 146.974609375 524 l 1
 169.981445312 589 252.76171875 705 384.76171875 705 c 1
 352.209960938 564 l 1
 305.978515625 563 285.435546875 513 284.28125 508 c 1
 211.327148438 192 l 2
 201.70703125 146 248.3984375 136 253.3984375 136 c 1
 220.845703125 -5 l 1
EndSplineSet
EndChar

StartChar: S
Encoding: 83 83 19
Width: 497
VWidth: 0
Flags: W
HStem: 680 20G<351.992 372.99 427.99 485.607>
LayerCount: 2
Back
Fore
SplineSet
377.607421875 700 m 5
 347.1328125 568 l 5
 324.748046875 562 298.9765625 537 293.435546875 513 c 4
 277.966796875 446 379.197265625 434 436.961914062 394 c 4
 489.650390625 358 545.799804688 311 522.250976562 209 c 4
 496.163085938 96 378.307617188 -3 270.307617188 -3 c 5
 300.3203125 127 l 5
 325.012695312 130 367.629882812 150 379.866210938 203 c 4
 397.181640625 278 291.875 294 238.5703125 323 c 4
 175.419921875 357 134.040039062 403 158.28125 508 c 4
 190.372070312 647 326.376953125 699 377.607421875 700 c 5
432.607421875 700 m 5
 538.607421875 700 575.981445312 589 573.669921875 553 c 5
 433.743164062 510 l 5
 439.59375 557 402.1328125 568 402.1328125 568 c 5
 432.607421875 700 l 5
215.307617188 -3 m 5
 106.307617188 -3 57.779296875 103 69.4775390625 158 c 5
 206.866210938 203 l 5
 195.9375 147 245.3203125 127 245.3203125 127 c 5
 215.307617188 -3 l 5
EndSplineSet
EndChar

StartChar: V
Encoding: 86 86 20
Width: 508
VWidth: 0
Flags: W
HStem: 0 21G<227.817 287.326> 0 21G<227.817 287.326> 680 20G<187.607 332.857 489.076 643.607>
LayerCount: 2
Back
Fore
SplineSet
187.607421875 700 m 1xa0
 331.607421875 700 l 1
 365.477539062 158 l 1
 276 0 l 1
 229 0 l 1
 187.607421875 700 l 1xa0
643.607421875 700 m 5
 573.364257812 569 500.2734375 430 425.952148438 290 c 1
 415.952148438 290 l 1
 401.666015625 514 l 1
 499.607421875 700 l 5
 643.607421875 700 l 5
EndSplineSet
EndChar

StartChar: W
Encoding: 87 87 21
Width: 725
VWidth: 0
Flags: W
HStem: 0 21G<227.817 287.2 440.817 500.2> 0 21G<227.817 287.2 440.817 500.2> 680 20G<187.607 332.82 400.607 545.82 706.076 860.607>
LayerCount: 2
Back
Fore
SplineSet
187.607421875 700 m 1xa0
 331.607421875 700 l 1
 364.477539062 158 l 1
 276 0 l 1
 229 0 l 1
 187.607421875 700 l 1xa0
400.607421875 700 m 1
 544.607421875 700 l 1
 577.477539062 158 l 1
 489 0 l 1
 442 0 l 1
 400.607421875 700 l 1
860.607421875 700 m 1
 642.952148438 290 l 1
 632.952148438 290 l 1
 618.666015625 514 l 1
 716.607421875 700 l 1
 860.607421875 700 l 1
EndSplineSet
EndChar

StartChar: N
Encoding: 78 78 22
Width: 509
VWidth: 0
Flags: W
HStem: 0 21G<32 177.617 402.183 481.617> 0 21G<32 177.617 402.183 481.617> 680 20G<188.99 316.396 492.99 638.607>
LayerCount: 2
Back
Fore
SplineSet
32 0 m 1xa0
 145.586914062 492 l 1
 153.586914062 492 l 1
 237.181640625 278 l 1
 173 0 l 1
 32 0 l 1xa0
638.607421875 700 m 1
 542.56640625 284 l 1
 534.56640625 284 l 1
 450.97265625 498 l 1
 497.607421875 700 l 1
 638.607421875 700 l 1
193.607421875 700 m 1
 308.607421875 700 l 1
 515.786132812 168 l 1
 477 0 l 1
 410 0 l 1
 172.368164062 608 l 1
 193.607421875 700 l 1
EndSplineSet
EndChar

StartChar: one
Encoding: -1 49 23
Width: 309
VWidth: 0
Flags: HMW
LayerCount: 2
Back
Fore
SplineSet
99 499 m 1
 43 444 l 1
 43 645 l 1
 99 701 l 1
 104 701 l 1
 226 701 l 1
 226 -0 l 1
 99 -0 l 1
 99 499 l 1
EndSplineSet
Validated: 1
EndChar

StartChar: two
Encoding: -1 50 24
Width: 515
VWidth: 0
Flags: HMW
LayerCount: 2
Back
Fore
SplineSet
464 127 m 1
 464 0 l 1
 63 0 l 1
 63 127 l 1
 464 127 l 1
209 703 m 1
 209 577 l 2
 208 577 161 561 161 499 c 1
 43 524 l 1
 52 608 114 691 209 703 c 1
264 578 m 1
 264 704 l 1
 266 704 269 704 271 704 c 0
 425 704 471 573 472 500 c 0
 472 499 472 498 472 497 c 0
 472 393 411 364 352 319 c 0
 281 265 247 235 210 186 c 1
 70 186 l 1
 135 306 232 363 262 388 c 0
 306 424 353 438 354 500 c 0
 354 501 354 501 354 502 c 0
 354 552 319 576 264 578 c 1
209 577 m 2
 209 577 209 577 209 577 c 2
 209 577 209 577 209 577 c 2
 209 577 l 2
EndSplineSet
Validated: 1
EndChar

StartChar: four
Encoding: 52 52 25
Width: 483
VWidth: 0
Flags: W
HStem: 0 21G<273 407.617> 0 21G<273 407.617> 681 20G<430.221 564.839>
LayerCount: 2
Back
Fore
SplineSet
278.795898438 272 m 1x20
 249.475585938 145 l 1
 59.4755859375 145 l 1
 88.7958984375 272 l 1
 354.059570312 598 l 1
 297.03515625 351 l 1
 232.795898438 272 l 1
 278.795898438 272 l 1x20
519.795898438 272 m 1
 490.475585938 145 l 1
 436.475585938 145 l 1
 403 0 l 1
 273 0 l 1xa0
 434.838867188 701 l 1
 564.838867188 701 l 1
 465.795898438 272 l 1
 519.795898438 272 l 1
EndSplineSet
EndChar

StartChar: X
Encoding: 88 88 26
Width: 464
VWidth: 0
Flags: W
HStem: 0 21G<26 182.923 290.312 438> 0 21G<26 182.923 290.312 438> 680 20G<199.607 339.49 438.49 587.607>
LayerCount: 2
Back
Fore
SplineSet
587.607421875 700 m 1xa0
 385.34375 361 l 1
 438 0 l 1
 293 0 l 1
 270.5546875 167 l 1
 171 0 l 1
 26 0 l 1
 245.34375 361 l 1
 199.607421875 700 l 1
 336.607421875 700 l 1
 358.515625 548 l 1
 450.607421875 700 l 1
 587.607421875 700 l 1xa0
EndSplineSet
EndChar

StartChar: Y
Encoding: 89 89 27
Width: 479
VWidth: 0
Flags: W
HStem: 0 21G<157 307.617> 0 21G<157 307.617> 680 20G<187.607 335.807 459.212 614.607>
LayerCount: 2
Back
Fore
SplineSet
187.607421875 700 m 1xa0
 334.607421875 700 l 1
 361.409179688 253 l 1
 303 0 l 1
 157 0 l 1
 215.178710938 252 l 1
 187.607421875 700 l 1xa0
399.440429688 565 m 1
 469.607421875 700 l 1
 614.607421875 700 l 1
 417.03125 312 l 1
 399.440429688 565 l 1
EndSplineSet
EndChar

StartChar: Z
Encoding: 90 90 28
Width: 418
VWidth: 0
Flags: W
HStem: 0 144<215.245 392> 560 140<187.607 365.286>
LayerCount: 2
Back
Fore
SplineSet
215.245117188 144 m 1
 425.245117188 144 l 1
 392 0 l 1
 26 0 l 1
 58.552734375 141 l 1
 365.286132812 560 l 1
 155.286132812 560 l 1
 187.607421875 700 l 1
 553.607421875 700 l 1
 521.978515625 563 l 1
 215.245117188 144 l 1
EndSplineSet
EndChar

StartChar: one
Encoding: 49 49 30
Width: 266
VWidth: 0
Flags: W
HStem: 0 21G<106 240.617> 0 21G<106 240.617> 679 20G<236.997 397.377> 679 20G<236.997 397.377>
VStem: 106 291.377
LayerCount: 2
Back
Fore
SplineSet
221.203125 499 m 1xa8
 131.3515625 439 l 1
 177.755859375 640 l 1
 267.376953125 699 l 1
 397.376953125 699 l 5
 236 0 l 5
 106 0 l 1
 221.203125 499 l 1xa8
EndSplineSet
EndChar

StartChar: at
Encoding: 64 64 31
Width: 803
VWidth: 0
Flags: W
HStem: -87 109<310.672 556.522> 116 124<540.057 667.445> 602 113<469.732 681.679>
LayerCount: 2
Back
Fore
SplineSet
690.479492188 103 m 1
 719.770507812 12 l 1
 647.611328125 -45 517.614257812 -87 402.9140625 -87 c 0
 175.333984375 -87 27.1943359375 46.998046875 87.6376953125 309 c 0
 139.314453125 532.998046875 356.3203125 715 613.370117188 715 c 0
 774.940429688 715 927.590820312 612 881.41796875 412 c 0
 832.704101562 201 681.240234375 116 559.080078125 116 c 0
 521.033203125 116 494.928710938 137 490.469726562 161 c 1
 471.390625 139 434.080078125 116 371.080078125 116 c 0
 295.080078125 116 250.0078125 193 272.170898438 289 c 0
 307.956054688 444 447.120117188 519 529.120117188 519 c 0
 593.120117188 519 609.118164062 493 620.423828125 477 c 1
 634.657226562 504 l 1
 717.887695312 504 l 1
 622.70703125 308 l 2
 617.466796875 297 609.943359375 280 606.7109375 266 c 0
 602.786132812 249 605.208007812 240 618.868164062 240 c 0
 653.948242188 240 730.59375 280 761.068359375 412 c 0
 788.310546875 530 688.381835938 602 590.282226562 602 c 0
 423.282226562 602 247.34765625 481 208.331054688 312 c 0
 164.465820312 122 265.079101562 22 419.079101562 22 c 0
 506.079101562 22 597.850585938 47 690.479492188 103 c 1
EndSplineSet
EndChar

StartChar: two
Encoding: 50 50 32
Width: 480
VWidth: 0
Flags: HW
HStem: 0 127<72.3203 447> 574 126<289.978 322.287 406.607 434.371>
LayerCount: 2
Back
Fore
SplineSet
476.3203125 127 m 1
 447 0 l 1
 43 0 l 1
 72.3203125 127 l 1
 476.3203125 127 l 1
351.376953125 699 m 1
 322.287109375 573 l 2
 321.287109375 573 270.59375 557 256.279296875 495 c 1
 144.051757812 520 l 1
 172.444335938 604 253.606445312 687 351.376953125 699 c 1
377.518554688 574 m 1
 406.607421875 700 l 1
 408.607421875 700 411.607421875 700 413.607421875 700 c 0
 567.607421875 700 584.518554688 574 567.741210938 497 c 0
 567.510742188 496 567.279296875 495 567.048828125 494 c 0
 543.0390625 390 485.650390625 358 414.723632812 315 c 0
 332.1796875 265 284.561523438 232 238.325195312 179 c 1
 86.3251953125 179 l 1
 174.72265625 302 287.881835938 359 323.653320312 384 c 0
 375.1953125 421 428.965820312 433 444.279296875 495 c 0
 444.510742188 496 444.510742188 496 444.741210938 497 c 0
 456.28515625 547 432.056640625 572 377.518554688 574 c 1
EndSplineSet
EndChar

StartChar: period
Encoding: -1 46 33
Width: 250
VWidth: 0
Flags: HMW
LayerCount: 2
Back
Fore
SplineSet
50 53 m 0
 50 95 83 129 125 129 c 0
 167 129 200 95 200 53 c 0
 200 11 167 -22 125 -22 c 0
 83 -22 50 11 50 53 c 0
EndSplineSet
Validated: 1
EndChar

StartChar: colon
Encoding: 58 58 34
Width: 250
VWidth: 0
Flags: W
HStem: -5 151<100.464 182.064> 285 151<167.416 249.015>
VStem: 66.1611 216.951
LayerCount: 2
Back
Fore
SplineSet
66.1611328125 70 m 0
 75.857421875 112 116.70703125 146 158.70703125 146 c 0
 200.70703125 146 225.857421875 112 216.161132812 70 c 0
 206.463867188 28 165.845703125 -5 123.845703125 -5 c 0
 81.845703125 -5 56.4638671875 28 66.1611328125 70 c 0
133.112304688 360 m 0
 142.80859375 402 183.658203125 436 225.658203125 436 c 0
 267.658203125 436 292.80859375 402 283.112304688 360 c 0
 273.416015625 318 232.797851562 285 190.797851562 285 c 0
 148.797851562 285 123.416015625 318 133.112304688 360 c 0
EndSplineSet
EndChar

StartChar: quotedbl
Encoding: -1 34 35
Width: 407
VWidth: 0
Flags: HMW
LayerCount: 2
Back
Fore
SplineSet
177 465 m 1
 50 465 l 1
 50 736 l 1
 177 736 l 1
 177 465 l 1
357 465 m 1
 230 465 l 1
 230 736 l 1
 357 736 l 1
 357 465 l 1
EndSplineSet
Validated: 1
EndChar

StartChar: plus
Encoding: -1 43 36
Width: 475
VWidth: 0
Flags: HMW
LayerCount: 2
Back
Fore
SplineSet
425 357 m 1
 425 230 l 1
 300 230 l 1
 300 87 l 1
 173 87 l 1
 173 230 l 1
 50 230 l 1
 50 357 l 1
 173 357 l 1
 173 498 l 1
 300 498 l 1
 300 357 l 1
 425 357 l 1
EndSplineSet
Validated: 1
EndChar

StartChar: asterisk
Encoding: -1 42 37
Width: 591
VWidth: 0
Flags: HMW
LayerCount: 2
Back
Fore
SplineSet
352 94 m 1
 234 94 l 1
 234 237 l 1
 119 157 l 1
 50 253 l 1
 195 353 l 1
 50 459 l 1
 120 554 l 1
 234 471 l 1
 234 605 l 1
 351 605 l 1
 351 467 l 1
 471 556 l 1
 540 461 l 1
 393 354 l 1
 541 252 l 1
 472 156 l 1
 351 238 l 1
 352 94 l 1
EndSplineSet
Validated: 1
EndChar

StartChar: comma
Encoding: -1 44 38
Width: 265
VWidth: 0
Flags: HMW
LayerCount: 2
Back
Fore
SplineSet
178 -23 m 1
 51 -23 l 1
 88 129 l 1
 215 129 l 1
 178 -23 l 1
EndSplineSet
Validated: 1
EndChar

StartChar: copyright
Encoding: 169 169 39
Width: 859
VWidth: 0
Flags: W
HStem: -49 93<338.012 400.688 457.158 545.141> 476 90<485.071 521.894> 636 90<471.367 558.832 614.61 685.379>
LayerCount: 2
Back
Fore
SplineSet
457.158203125 44 m 1
 604.774414062 51 758.325195312 179 796.6484375 332 c 0
 797.110351562 334 797.802734375 337 798.264648438 339 c 0
 839.127929688 516 722.6015625 635 593.83203125 636 c 1
 614.610351562 726 l 1
 762.379882812 725 944.981445312 589 887.264648438 339 c 0
 886.340820312 335 885.416992188 331 884.494140625 327 c 0
 827.010742188 104 609.072265625 -43 435.6875 -49 c 1
 457.158203125 44 l 1
542.671875 566 m 1
 521.893554688 476 l 1
 492.893554688 476 480.890625 450 480.198242188 447 c 2
 430.330078125 231 l 2
 429.637695312 228 429.866210938 203 458.866210938 203 c 1
 437.857421875 112 l 1
 346.857421875 112 331.557617188 193 340.330078125 231 c 2
 390.198242188 447 l 2
 398.970703125 485 451.671875 566 542.671875 566 c 1
493.404296875 201 m 1
 493.404296875 201 515.790039062 207 525.252929688 222 c 0
 529.869140625 229 531.485351562 236 533.5625 245 c 2
 537.94921875 264 l 1
 618.561523438 232 l 1
 604.478515625 171 531.857421875 112 472.857421875 112 c 1
 493.404296875 201 l 1
556.893554688 476 m 1
 577.671875 566 l 1
 636.671875 566 682.049804688 507 667.966796875 446 c 1
 572.348632812 413 l 1
 576.735351562 432 l 2
 578.8125 441 580.428710938 448 579.276367188 456 c 0
 576.5078125 470 556.893554688 476 556.893554688 476 c 1
422.158203125 44 m 1
 400.6875 -49 l 1
 230.072265625 -43 80.0107421875 104 125.494140625 327 c 0
 126.416992188 331 127.340820312 335 128.264648438 339 c 0
 185.981445312 589 431.379882812 725 579.610351562 726 c 1
 558.83203125 636 l 1
 429.6015625 635 258.127929688 516 217.264648438 339 c 0
 216.802734375 337 216.110351562 334 215.6484375 332 c 0
 183.325195312 179 277.774414062 51 422.158203125 44 c 1
EndSplineSet
EndChar

StartChar: registered
Encoding: 174 174 40
Width: 404
VWidth: 0
Flags: W
HStem: 354 42<227.239 273.728 302.424 369.177> 511 36<332.285 347.444> 591 37<350.985 365.276> 662 41<280.407 347.835 373.301 420.746>
LayerCount: 2
Back
Fore
SplineSet
295.75390625 627 m 1
 334.75390625 627 l 1
 289.2734375 430 l 1
 250.2734375 430 l 1
 295.75390625 627 l 1
332.28515625 547 m 1
 336.28515625 547 l 2
 353.28515625 547 362.59375 557 365.1328125 568 c 0
 368.365234375 582 360.443359375 591 346.443359375 591 c 2
 342.443359375 591 l 1
 350.985351562 628 l 1
 392.985351562 628 409.444335938 604 401.594726562 570 c 0
 397.208007812 551 388.20703125 538 373.360351562 530 c 1
 374.360351562 530 l 1
 382.513671875 522 385.819335938 506 383.586914062 492 c 2
 369.50390625 431 l 1
 334.50390625 431 l 1
 346.047851562 481 l 2
 351.357421875 504 343.973632812 511 323.973632812 511 c 1
 332.28515625 547 l 1
302.423828125 396 m 1
 368.116210938 399 437.276367188 456 455.206054688 525 c 0
 455.436523438 526 455.436523438 526 455.66796875 527 c 0
 474.368164062 608 422.834960938 662 363.834960938 662 c 1
 373.30078125 703 l 1
 439.069335938 702 521.986328125 641 495.8984375 528 c 0
 495.436523438 526 495.206054688 525 494.744140625 523 c 0
 471.657226562 423 370.419921875 357 292.727539062 354 c 1
 302.423828125 396 l 1
282.423828125 396 m 1
 273.727539062 354 l 1
 192.958007812 355 129.735351562 432 150.744140625 523 c 0
 150.974609375 524 150.974609375 524 151.206054688 525 c 0
 179.833007812 649 295.30078125 703 355.30078125 703 c 0
 356.30078125 703 356.30078125 703 357.30078125 703 c 2
 347.834960938 662 l 1
 288.834960938 662 210.598632812 609 191.436523438 526 c 0
 176.506835938 457 218.116210938 399 282.423828125 396 c 1
EndSplineSet
EndChar

StartChar: a
Encoding: 97 97 41
Width: 435
VWidth: 0
Flags: W
HStem: 1 112<162.682 180.23 255.088 294.992> 407 112<233.909 274.963 347.82 354.912>
LayerCount: 2
Back
Fore
SplineSet
347.8203125 519 m 1
 350.8203125 519 l 2
 453.8203125 519 481.887695312 424 471.729492188 380 c 0
 417.013671875 143 l 0
 415.859375 138 412.319335938 114 433.319335938 114 c 0
 436.319335938 114 l 1
 410.23046875 1 l 1
 407.23046875 1 l 0
 370.23046875 1 344.000976562 13 327.92578125 30 c 1
 300.770507812 12 268.23046875 1 232.23046875 1 c 2
 229.23046875 1 l 1
 255.087890625 113 l 1
 258.087890625 113 l 2
 288.319335938 114 301.70703125 146 302.399414062 149 c 0
 320.407226562 227 l 1
 277.328125 205 196.865234375 190 181.249023438 183 c 0
 174.556640625 180 166.940429688 173 164.400390625 162 c 0
 161.399414062 149 l 2
 156.782226562 129 163.087890625 113 189.087890625 113 c 2
 206.087890625 113 l 1
 180.23046875 1 l 1
 83.23046875 1 40.775390625 64 53.9345703125 121 c 2
 64.5546875 167 l 2
 72.173828125 200 86.7919921875 233 134.333007812 257 c 0
 183.104492188 282 339.799804688 311 349.03515625 351 c 0
 349.958007812 355 350.881835938 359 351.8046875 363 c 0
 357.345703125 387 359.270507812 404 324.962890625 407 c 0
 322.194335938 408 l 1
 347.8203125 519 l 1
274.962890625 407 m 1
 271.962890625 407 l 2
 248.501953125 405 228.0390625 390 219.49609375 353 c 0
 218.573242188 349 l 1
 122.807617188 389 l 1
 123.26953125 391 l 0
 139.661132812 462 229.8203125 519 297.8203125 519 c 0
 300.8203125 519 l 1
 274.962890625 407 l 1
EndSplineSet
EndChar

StartChar: period
Encoding: 46 46 42
Width: 250
VWidth: 0
Flags: W
HStem: -22 151<96.5389 178.14>
VStem: 62.2363 150<10.8125 95.5039>
LayerCount: 2
Back
Fore
SplineSet
62.236328125 53 m 0
 71.9326171875 95 112.782226562 129 154.782226562 129 c 0
 196.782226562 129 221.932617188 95 212.236328125 53 c 0
 202.5390625 11 161.920898438 -22 119.920898438 -22 c 0
 77.9208984375 -22 52.5390625 11 62.236328125 53 c 0
EndSplineSet
EndChar

StartChar: o
Encoding: 111 111 43
Width: 420
VWidth: 0
Flags: W
HStem: -1 118<182.136 191.77 260.012 302.041> 398 118<240.098 283.886 352.128 360.317>
LayerCount: 2
Back
Fore
SplineSet
114.806640625 376 m 0
 125.1953125 421 198.127929688 516 305.127929688 516 c 2
 311.127929688 516 l 1
 283.885742188 398 l 1
 277.885742188 398 l 0
 244.885742188 398 234.114257812 373 231.8046875 363 c 5
 183.553710938 154 l 1
 179.166992188 135 183.01171875 117 213.01171875 117 c 0
 219.01171875 117 l 1
 191.76953125 -1 l 1
 185.76953125 -1 l 0
 77.76953125 -1 50.39453125 97 60.552734375 141 c 0
 114.806640625 376 l 0
324.885742188 398 m 1
 352.127929688 516 l 1
 358.127929688 516 l 0
 461.127929688 516 489.1953125 421 478.806640625 376 c 0
 424.552734375 141 l 0
 414.163085938 96 342.76953125 -1 238.76953125 -1 c 0
 232.76953125 -1 l 1
 260.01171875 117 l 1
 266.01171875 117 l 0
 297.2421875 118 307.552734375 141 310.091796875 152 c 1
 358.8046875 363 l 1
 362.729492188 380 360.885742188 398 330.885742188 398 c 0
 324.885742188 398 l 1
EndSplineSet
EndChar

StartChar: quotedbl
Encoding: 34 34 44
Width: 359
VWidth: 0
Flags: W
HStem: 465 271<195.919 260.354 375.919 440.354>
LayerCount: 2
Back
Fore
SplineSet
260.353515625 465 m 1
 133.353515625 465 l 1
 195.918945312 736 l 1
 322.918945312 736 l 1
 260.353515625 465 l 1
440.353515625 465 m 1
 313.353515625 465 l 1
 375.918945312 736 l 1
 502.918945312 736 l 1
 440.353515625 465 l 1
EndSplineSet
EndChar

StartChar: plus
Encoding: 43 43 45
Width: 575
VWidth: 0
Flags: W
HStem: 230 127<182.42 276.1 432.42 528.1>
LayerCount: 2
Back
Fore
SplineSet
557.419921875 357 m 1
 528.099609375 230 l 1
 403.099609375 230 l 1
 370.0859375 87 l 1
 243.0859375 87 l 1
 276.099609375 230 l 1
 153.099609375 230 l 1
 182.419921875 357 l 1
 305.419921875 357 l 1
 337.97265625 498 l 1
 464.97265625 498 l 1
 432.419921875 357 l 1
 557.419921875 357 l 1
EndSplineSet
EndChar

StartChar: asterisk
Encoding: 42 42 46
Width: 394
VWidth: 0
Flags: W
HStem: 478 307<341.231 341.355> 517 21G<201.59 244.912 397.115 439.901>
VStem: 183.519 320.012
LayerCount: 2
Back
Fore
SplineSet
341.35546875 478 m 1xa0
 270.35546875 478 l 1xa0
 290.209960938 564 l 1
 211.358398438 517 l 1x60
 183.518554688 574 l 1
 284.139648438 633 l 5
 209.530273438 691 l 1
 264.689453125 748 l 1
 322.53125 704 l 1
 341.231445312 785 l 1
 412.231445312 785 l 1
 393.069335938 702 l 1
 474.689453125 748 l 1
 503.530273438 691 l 1
 401.909179688 632 l 1
 475.056640625 572 l 1
 420.897460938 515 l 1
 361.440429688 565 l 1
 341.35546875 478 l 1xa0
EndSplineSet
EndChar

StartChar: comma
Encoding: 44 44 47
Width: 264
VWidth: 0
Flags: W
HStem: -58 187<116.782 163.609>
VStem: 36.6094 207.173
LayerCount: 2
Back
Fore
SplineSet
163.609375 -58 m 1
 36.609375 -58 l 1
 116.782226562 129 l 1
 243.782226562 129 l 1
 163.609375 -58 l 1
EndSplineSet
EndChar

StartChar: r
Encoding: 114 114 48
Width: 316
VWidth: 0
Flags: W
HStem: 0 21G<36 164.617> 0 21G<36 164.617> 399 117<321.804 375.116>
LayerCount: 2
Back
Fore
SplineSet
155.127929688 516 m 5xa0
 279.127929688 516 l 1
 264.814453125 454 l 1
 292.047851562 481 348.127929688 516 403.127929688 516 c 0
 436.127929688 516 l 1
 380.193359375 395 l 1
 375.116210938 399 l 1
 307.885742188 398 236.416992188 331 222.565429688 271 c 0
 160 0 l 1
 36 0 l 5
 155.127929688 516 l 5xa0
EndSplineSet
EndChar

StartChar: f
Encoding: 102 102 49
Width: 304
VWidth: 0
Flags: W
HStem: 0 21G<89 215.617> 0 21G<89 215.617> 400 116<145.128 181.348 329.897 369.348> 579 117<340.618 410.673>
LayerCount: 2
Back
Fore
SplineSet
216.439453125 552 m 0xb0
 226.828125 597 300.453125 695 403.684570312 696 c 2
 464.684570312 696 l 1
 410.672851562 579 l 1
 377.672851562 579 l 1
 349.44140625 578 339.131835938 555 338.439453125 552 c 0
 329.897460938 515 l 1
 396.127929688 516 l 1
 369.34765625 400 l 1
 303.34765625 400 l 1
 211 0 l 1
 89 0 l 1
 181.34765625 400 l 1
 118.34765625 400 l 1
 145.127929688 516 l 1
 208.127929688 516 l 1
 216.439453125 552 l 0xb0
EndSplineSet
EndChar

StartChar: g
Encoding: 103 103 50
Width: 415
VWidth: 0
Flags: W
HStem: -181 112<37.7168 257.474> -1 21G<136.229 196.599 230.98 240.918> -1 21G<136.229 196.599 230.98 240.918> 403 113<240.798 285.252 350.339 357.884>
LayerCount: 2
Back
Fore
SplineSet
194.708984375 -181 m 1xd0
 -15.6123046875 -181 l 1
 37.716796875 -69 l 1
 218.393554688 -69 l 1
 250.051757812 -68.0673828125 262.12890625 -42.7578125 262.765625 -40 c 0
 272.73828125 3.197265625 l 1
 260.58984375 0.6279296875 247.693359375 -1 234.142578125 -1 c 0
 230.98046875 -1 l 1
 256.438476562 109.270507812 l 1
 259.522460938 109.359375 l 0
 291.181640625 110.278320312 303.42578125 136.122070312 304.072265625 138.921875 c 0
 358.442382812 374.424804688 l 0
 359.091796875 377.236328125 358.791992188 403 327.413085938 403 c 0
 324.250976562 403 l 1
 350.338867188 516 l 1
 353.500976562 516 l 0
 366.977539062 516 379.408203125 514.223632812 389.993164062 511.084960938 c 1
 391.127929688 516 l 1
 508.127929688 516 l 1
 379.765625 -40 l 0
 369.741210938 -83.419921875 297.564453125 -179.978515625 194.708984375 -181 c 1xd0
308.177734375 516 m 0
 311.33984375 516 l 1
 285.251953125 403 l 1
 282.08984375 403 l 0
 249.594726562 403 237.166992188 377.33984375 236.530273438 374.5859375 c 0
 182.467773438 140.4140625 l 0
 181.857421875 137.768554688 183.447265625 112 214.907226562 112 c 0
 218.069335938 112 l 1
 191.981445312 -1 l 1
 188.819335938 -1 l 0
 83.6376953125 -1 57.2802734375 96.505859375 67.1767578125 139.37109375 c 0
 122.185546875 377.640625 l 1
 133.34375 421.5078125 204.02734375 516 308.177734375 516 c 0
EndSplineSet
EndChar

StartChar: i
Encoding: 105 105 51
Width: 199
VWidth: 0
Flags: W
HStem: 0 21G<39 165.617> 0 21G<39 165.617> 496 20G<153.511 280.128> 558 145<204.837 284.259>
VStem: 39 278.447
LayerCount: 2
Back
Fore
SplineSet
317.447265625 630 m 0x38
 308.443359375 591 267.82421875 558 227.82421875 558 c 0
 187.82421875 558 162.443359375 591 171.447265625 630 c 0
 180.681640625 670 221.30078125 703 261.30078125 703 c 0
 301.30078125 703 326.681640625 670 317.447265625 630 c 0x38
161 0 m 1xb8
 39 0 l 1
 158.127929688 516 l 1
 280.127929688 516 l 1
 161 0 l 1xb8
EndSplineSet
EndChar

StartChar: e
Encoding: 101 101 52
Width: 424
VWidth: 0
Flags: W
HStem: 0 21G<131.037 193.075 236.458 276.742> 0 21G<131.037 193.075 236.458 276.742> 207.5 116<223.144 358.144> 402.396 113.604<238.552 279.897 355.586 367.633>
LayerCount: 2
Back
Fore
SplineSet
332.43359375 402.395507812 m 0xb0
 329.340820312 402.319335938 l 1
 355.5859375 516 l 1
 361.0859375 516 l 0
 430.926757812 516 501.426757812 450.33984375 484.716796875 377.958984375 c 0
 445.36328125 207.5 l 1
 196.36328125 207.5 l 1
 180.96484375 140.802734375 l 0
 180.259765625 137.75 180.5703125 108.975585938 208.092773438 108.131835938 c 0
 213.384765625 107.96875 l 1
 188.458007812 0 l 1
 182.958007812 0 l 0
 79.115234375 0 48.8212890625 96.8671875 59.125 141.49609375 c 0
 113.385742188 376.524414062 l 1
 124.749023438 421.155273438 199.243164062 516 301.0859375 516 c 0
 306.5859375 516 l 1
 279.897460938 400.401367188 l 1
 276.897460938 400.401367188 l 0
 247.799804688 400.401367188 236.166992188 379.908203125 233.540039062 368.529296875 c 0
 223.143554688 323.5 l 1
 358.143554688 323.5 l 1
 368.586914062 368.733398438 l 0
 374.71484375 395.27734375 352.712890625 402.891601562 332.43359375 402.395507812 c 0xb0
236.458007812 0 m 1
 262.020507812 110.724609375 l 1
 267.30078125 110.993164062 l 0
 298.330078125 112.571289062 324.717773438 132.319335938 333.661132812 153.103515625 c 0
 335.141601562 156.54296875 l 1
 425.731445312 120.118164062 l 1
 424.505859375 117.521484375 l 0
 394.421875 53.7734375 311.526367188 0 241.958007812 0 c 0
 236.458007812 0 l 1
EndSplineSet
EndChar

StartChar: d
Encoding: 100 100 53
Width: 414
VWidth: 0
Flags: W
HStem: 0 21G<130 214.617 258 388.617> 0 21G<130 214.617 258 388.617> 398 118<237.623 301.886> 678 20G<414.529 545.146>
LayerCount: 2
Back
Fore
SplineSet
299.127929688 516 m 0xb0
 329.127929688 516 l 1
 301.885742188 398 l 1
 271.885742188 398 l 1
 244.654296875 397 234.575195312 375 234.114257812 373 c 0
 181.013671875 143 l 1
 180.552734375 141 181.2421875 118 209.2421875 118 c 0
 237.2421875 118 l 1
 210 0 l 1
 182 0 l 0
 78 0 52.39453125 97 62.552734375 141 c 0
 117.037109375 377 l 1
 128.426757812 422 198.127929688 516 299.127929688 516 c 0xb0
384 0 m 1
 258 0 l 1
 419.146484375 698 l 1
 545.146484375 698 l 1
 384 0 l 1
EndSplineSet
EndChar

StartChar: h
Encoding: 104 104 54
Width: 421
VWidth: 0
Flags: W
HStem: 678 20G<186.15 305.544>
LayerCount: 2
Back
Fore
SplineSet
144.89453125 1.1845703125 m 1
 29.89453125 1.1845703125 l 1
 190.767578125 698 l 1
 305.543945312 698 l 1
 261.069335938 505.360351562 l 1
 263.889648438 506.07421875 l 0
 276.202148438 509.051757812 293.666015625 510.741210938 307.948242188 511.146484375 c 0
 311.216796875 511.239257812 l 1
 285.333984375 399.12890625 l 1
 282.404296875 398.889648438 l 0
 249.797851562 396.229492188 230.057617188 370.065429688 228.90234375 365.061523438 c 0
 144.89453125 1.1845703125 l 1
355.971679688 511.116210938 m 1
 359.217773438 510.999023438 l 2
 455.29296875 507.415039062 497.374023438 443.432617188 481.302734375 373.819335938 c 0
 395.241210938 1.046875 l 1
 281.241210938 1.046875 l 1
 365.249023438 364.923828125 l 0
 366.25 369.2578125 365.793945312 395.95703125 332.90625 398.75390625 c 0
 330.086914062 398.993164062 l 1
 355.971679688 511.116210938 l 1
EndSplineSet
EndChar

StartChar: j
Encoding: 106 106 55
Width: 194
VWidth: 0
Flags: W
HStem: -181 117<-37.3701 23.5935> 496 20G<151.295 277.912> 555.675 145.65<202.877 281.892>
LayerCount: 2
Back
Fore
SplineSet
150.126953125 -37.5 m 0
 139.1640625 -84.9833984375 67.3662109375 -181 -34.5029296875 -181 c 2
 -91.787109375 -181 l 1
 -37.3701171875 -64 l 1
 -10.5771484375 -64 l 1
 17.509765625 -63.12890625 27.6484375 -39.572265625 28.126953125 -37.5 c 0
 155.912109375 516 l 1
 277.912109375 516 l 1
 150.126953125 -37.5 l 0
315.209960938 628.5 m 0
 306.00390625 588.624023438 265.448242188 555.674804688 225.572265625 555.674804688 c 0
 185.6953125 555.674804688 160.353515625 588.624023438 169.559570312 628.5 c 0
 178.765625 668.375976562 219.321289062 701.325195312 259.198242188 701.325195312 c 0
 299.07421875 701.325195312 324.416015625 668.375976562 315.209960938 628.5 c 0
EndSplineSet
EndChar

StartChar: l
Encoding: 108 108 56
Width: 184
VWidth: 0
Flags: W
HStem: 0 21G<30 165.617> 0 21G<30 165.617> 678 20G<186.529 322.146>
VStem: 30 292.146
LayerCount: 2
Back
Fore
SplineSet
161 0 m 1xb0
 30 0 l 1
 191.146484375 698 l 1
 322.146484375 698 l 1
 161 0 l 1xb0
EndSplineSet
EndChar

StartChar: hyphen
Encoding: -1 45 57
Width: 416
VWidth: 0
Flags: HMW
LayerCount: 2
Back
Fore
SplineSet
366 357 m 1
 366 230 l 1
 50 230 l 1
 50 357 l 1
 366 357 l 1
EndSplineSet
Validated: 1
EndChar

StartChar: slash
Encoding: -1 47 58
Width: 401
VWidth: 0
Flags: HMW
LayerCount: 2
Back
Fore
SplineSet
50 -23 m 1
 225 716 l 1
 351 716 l 1
 177 -23 l 1
 50 -23 l 1
EndSplineSet
Validated: 1
EndChar

StartChar: u
Encoding: 117 117 59
Width: 434
VWidth: 0
Flags: W
HStem: -5 121<186.73 194.846 264.78 307.3> 494 20G<144.049 272.666 394.049 522.666>
LayerCount: 2
Back
Refer: 12 85 S 0.731558 0 0 0.730289 -27.5779 5.47717 2
Refer: 12 85 N 0.731558 0 0 0.730289 -27.5779 5.47717 2
Refer: 12 85 N 0.731558 0 0 0.730289 -27.5779 5.47717 2
Fore
SplineSet
264.780273438 116 m 5
 269.780273438 116 l 6
 300.780273438 116 312.321289062 140 312.783203125 142 c 5
 398.666015625 514 l 5
 522.666015625 514 l 5
 435.62890625 137 l 4
 425.240234375 92 348.845703125 -5 241.845703125 -5 c 4
 236.845703125 -5 l 5
 264.780273438 116 l 5
148.666015625 514 m 5
 272.666015625 514 l 5
 186.783203125 142 l 5
 186.090820312 139 186.780273438 116 217.780273438 116 c 4
 222.780273438 116 l 5
 194.845703125 -5 l 5
 189.845703125 -5 l 4
 82.845703125 -5 50.546875 89 61.62890625 137 c 4
 148.666015625 514 l 5
EndSplineSet
EndChar

StartChar: m
Encoding: 109 109 60
Width: 684
VWidth: 0
Flags: W
HStem: 0 21G<30 158.617 280 408.617 530 658.617> 0 21G<30 158.617 280 408.617 530 658.617> 398 121<244.49 286.886 356.82 364.779 493.072 538.886 607.82 615.942>
LayerCount: 2
Back
Fore
SplineSet
239.8828125 372 m 1xa0
 154 0 l 1
 30 0 l 1
 117.037109375 377 l 0
 128.119140625 425 203.8203125 519 308.8203125 519 c 0
 314.8203125 519 l 1
 286.885742188 398 l 1
 280.885742188 398 l 0
 250.885742188 398 240.344726562 374 239.8828125 372 c 1xa0
615.8828125 372 m 1
 616.575195312 375 615.885742188 398 585.885742188 398 c 2
 579.885742188 398 l 1
 607.8203125 519 l 1
 613.8203125 519 l 0
 719.8203125 519 751.426757812 422 741.037109375 377 c 0
 654 0 l 1
 530 0 l 1
 615.8828125 372 l 1
280 0 m 1
 365.8828125 372 l 2
 366.575195312 375 364.885742188 398 334.885742188 398 c 0
 328.885742188 398 l 1
 356.8203125 519 l 1
 362.8203125 519 l 0
 404.8203125 519 433.588867188 505 454.202148438 486 c 1
 483.819335938 506 518.8203125 519 560.8203125 519 c 0
 566.8203125 519 l 1
 538.885742188 398 l 1
 532.885742188 398 l 0
 501.885742188 398 490.344726562 374 489.8828125 372 c 1
 404 0 l 1
 280 0 l 1
EndSplineSet
EndChar

StartChar: six
Encoding: 54 54 61
Width: 497
VWidth: 0
Flags: W
HStem: -1 125<219.706 227.77 310.396 362.155> 307 118<252.102 298.877 380.119 391.505> 573 125<319.741 360.057 443.146 470.543>
LayerCount: 2
Back
Fore
SplineSet
380.119140625 425 m 1
 504.119140625 425 546.494140625 327 519.250976562 209 c 0
 490.392578125 84 383 0 281.76953125 -1 c 1
 310.396484375 123 l 1
 346.3203125 127 392.708007812 159 404.020507812 208 c 0
 422.952148438 290 372.18359375 304 354.337890625 309 c 1
 380.119140625 425 l 1
478.9765625 537 m 1
 468.055664062 559 453.287109375 573 425.287109375 573 c 0
 421.287109375 573 418.287109375 573 414.287109375 573 c 1
 443.146484375 698 l 1
 521.146484375 698 567.142578125 659 588.520507812 600 c 1
 478.9765625 537 l 1
388.915039062 697 m 1
 360.056640625 572 l 1
 295.440429688 565 253.428710938 448 242.116210938 399 c 1
 264.579101562 414 296.119140625 425 326.119140625 425 c 1
 298.876953125 307 l 1
 298.876953125 307 297.876953125 307 297.876953125 307 c 0
 276.72265625 302 226.028320312 286 208.250976562 209 c 0
 199.248046875 170 219.55078125 128 256.627929688 124 c 1
 227.76953125 -1 l 1
 52.76953125 -1 68.94140625 186 108.650390625 358 c 0
 135.662109375 475 210.8359375 675 388.915039062 697 c 1
EndSplineSet
EndChar

StartChar: p
Encoding: 112 112 62
Width: 422
VWidth: 0
Flags: W
HStem: 0 118<230.242 304.296> 496 20G<144.511 274.128 310.511 400.628>
LayerCount: 2
Back
Fore
SplineSet
232 0 m 0
 203 0 l 1
 230.2421875 118 l 1
 261.2421875 118 l 1
 298.473632812 119 306.936523438 134 309.013671875 143 c 0
 361.8828125 372 l 1
 364.883789062 385 349.885742188 398 319.885742188 398 c 0
 287.885742188 398 l 1
 315.127929688 516 l 1
 347.127929688 516 l 0
 454.127929688 516 495.50390625 431 482.575195312 375 c 4
 428.090820312 139 l 1
 415.854492188 86 345 0 232 0 c 0
149.127929688 516 m 1
 274.127929688 516 l 1
 112.982421875 -182 l 1
 -12.017578125 -182 l 1
 149.127929688 516 l 1
EndSplineSet
EndChar

StartChar: b
Encoding: 98 98 63
Width: 414
VWidth: 0
Flags: W
HStem: 0 118<230.242 298.746> 496 20G<317.511 406.128> 679 20G<186.76 316.377> 679 20G<186.76 316.377>
LayerCount: 2
Back
Fore
SplineSet
30 0 m 1xe0
 191.376953125 699 l 1
 316.376953125 699 l 1
 155 0 l 1
 30 0 l 1xe0
356.114257812 373 m 1
 356.575195312 375 355.654296875 397 328.885742188 398 c 2
 294.885742188 398 l 1
 322.127929688 516 l 1
 355.127929688 516 l 0
 457.127929688 516 484.426757812 422 475.037109375 377 c 1
 420.552734375 141 l 0
 410.39453125 97 339 0 236 0 c 0
 203 0 l 1
 230.2421875 118 l 1
 263.2421875 118 l 0
 291.2421875 118 302.783203125 142 303.013671875 143 c 1
 356.114257812 373 l 1
EndSplineSet
EndChar

StartChar: c
Encoding: 99 99 64
Width: 418
VWidth: 0
Flags: W
HStem: -1 117<183.476 199 269.78 307.09> 496 20G<251.628 310.128 347.511 394.628>
LayerCount: 2
Back
Fore
SplineSet
354.422851562 383 m 1
 352.654296875 397 331.116210938 399 331.116210938 399 c 0
 330.116210938 399 329.116210938 399 328.116210938 399 c 0
 325.116210938 399 l 1
 352.127929688 516 l 1
 358.127929688 516 l 0
 431.127929688 516 484.428710938 448 467.806640625 376 c 0
 466.8828125 372 l 1
 346.186523438 330 l 1
 353.112304688 360 l 0
 355.420898438 370 356.575195312 375 354.422851562 383 c 1
242.76953125 -1 m 1
 269.780273438 116 l 1
 275.780273438 116 l 1
 277.780273438 116 299.473632812 119 307.474609375 132 c 1
 313.321289062 140 314.70703125 146 317.015625 156 c 0
 323.94140625 186 l 1
 425.245117188 144 l 1
 424.321289062 140 l 0
 407.69921875 68 322.76953125 -1 249.76953125 -1 c 0
 242.76953125 -1 l 1
117.037109375 377 m 1
 128.1953125 421 199.127929688 516 304.127929688 516 c 2
 310.127929688 516 l 1
 283.34765625 400 l 1
 277.34765625 400 l 0
 246.34765625 400 236.037109375 377 235.575195312 375 c 0
 181.552734375 141 l 0
 181.090820312 139 180.549804688 115 220.549804688 115 c 0
 225.319335938 114 l 1
 199 0 l 1
 194 0 l 0
 79 0 52.39453125 97 62.552734375 141 c 0
 117.037109375 377 l 1
EndSplineSet
EndChar

StartChar: q
Encoding: 113 113 65
Width: 416
VWidth: 0
Flags: W
HStem: 0 21G<133.112 223.617> 0 21G<133.112 223.617> 398 118<237.05 306.352>
LayerCount: 2
Back
Fore
SplineSet
179.120117188 143.45703125 m 0xa0
 178.724609375 141.74609375 178.1328125 118.8515625 215.452148438 118 c 2
 246.2421875 118 l 1
 219 0 l 1
 189.5 0 l 0
 76.7236328125 0 48.732421875 93.8779296875 58.201171875 139.4765625 c 1
 112.4609375 374.50390625 l 0
 122.752929688 419.083007812 194.770507812 516 302.181640625 516 c 0
 333.59375 516 l 1
 306.3515625 398 l 1
 274.939453125 398 l 0
 243.393554688 398 232.524414062 374.322265625 232.006835938 372.536132812 c 1
 179.120117188 143.45703125 l 0xa0
504.127929688 516 m 5
 343.982421875 -182 l 1
 219.805664062 -182 l 1
 380.0625 516 l 1
 504.127929688 516 l 5
EndSplineSet
EndChar

StartChar: t
Encoding: 116 116 66
Width: 324
VWidth: 0
Flags: W
HStem: 0 21G<182.115 298.297> 0 21G<182.115 298.297> 398 118<145.128 180.886 330.128 362.886> 680 20G<245.99 372.607>
VStem: 117.886 272.242
LayerCount: 2
Back
Fore
SplineSet
272.858398438 125 m 2xb8
 299.858398438 125 l 1
 298 0 l 1
 243 0 l 2
 121.23046875 1 104.237304688 66 127.786132812 168 c 2
 180.885742188 398 l 1
 117.885742188 398 l 1
 145.127929688 516 l 1
 208.127929688 516 l 1
 250.607421875 700 l 1
 372.607421875 700 l 1
 330.127929688 516 l 1
 390.127929688 516 l 1
 362.885742188 398 l 1
 302.885742188 398 l 1
 247.708007812 159 l 2
 244.475585938 145 245.08984375 126 272.858398438 125 c 2xb8
EndSplineSet
EndChar

StartChar: v
Encoding: 118 118 67
Width: 400
VWidth: 0
Flags: W
HStem: 0 21G<172.481 254.784> 0 21G<172.481 254.784> 496 20G<134.897 272.329 377.445 518.897>
LayerCount: 2
Back
Fore
SplineSet
174 0 m 1xa0
 134.897460938 515 l 1
 270.127929688 516 l 1
 313.704101562 120 l 1
 243 0 l 1
 174 0 l 1xa0
388.127929688 516 m 1
 518.897460938 515 l 1
 356.020507812 208 l 1
 344.020507812 208 l 1
 322.961914062 394 l 1
 388.127929688 516 l 1
EndSplineSet
EndChar

StartChar: w
Encoding: 119 119 68
Width: 577
VWidth: 0
Flags: W
HStem: 0 21G<158.714 233.117 346.481 422.784> 0 21G<158.714 233.117 346.481 422.784> 496 20G<126.897 264.42 308.897 448.622 551.609 687.897>
LayerCount: 2
Back
Fore
SplineSet
160 0 m 1xa0
 126.897460938 515 l 1
 263.127929688 516 l 1
 288.704101562 120 l 1
 222 0 l 1
 160 0 l 1xa0
348 0 m 1
 308.897460938 515 l 1
 447.127929688 516 l 1
 476.704101562 120 l 1
 412 0 l 1
 348 0 l 1
562.127929688 516 m 1
 687.897460938 515 l 1
 519.020507812 208 l 1
 511.020507812 208 l 1
 497.961914062 394 l 1
 562.127929688 516 l 1
EndSplineSet
EndChar

StartChar: x
Encoding: 120 120 69
Width: 381
VWidth: 0
Flags: W
HStem: 0 21G<18 156.665 252.57 382> 0 21G<18 156.665 252.57 382> 496 19G<141.128 270.57 357.314 496.897>
LayerCount: 2
Back
Fore
SplineSet
192.487304688 262 m 1xa0
 141.127929688 516 l 1
 266.127929688 516 l 1
 292.116210938 399 l 1
 370.897460938 515 l 1
 496.897460938 515 l 1
 329.487304688 262 l 1
 382 0 l 1
 257 0 l 1
 229.08984375 126 l 1
 143 0 l 1
 18 0 l 1
 192.487304688 262 l 1xa0
EndSplineSet
EndChar

StartChar: hyphen
Encoding: 45 45 70
Width: 516
VWidth: 0
Flags: W
HStem: 230 127<182.42 469.1>
LayerCount: 2
Back
Fore
SplineSet
498.419921875 357 m 1
 469.099609375 230 l 1
 153.099609375 230 l 1
 182.419921875 357 l 1
 498.419921875 357 l 1
EndSplineSet
EndChar

StartChar: slash
Encoding: 47 47 71
Width: 501
VWidth: 0
Flags: HW
LayerCount: 2
Back
Fore
SplineSet
27.6904296875 -23 m 5
 373.301757812 716 l 5
 499.301757812 716 l 5
 154.690429688 -23 l 5
 27.6904296875 -23 l 5
EndSplineSet
EndChar

StartChar: three
Encoding: -1 51 72
Width: 574
VWidth: 0
Flags: HMW
LayerCount: 2
Back
Fore
SplineSet
167 537 m 1
 61 600 l 1
 94 656 152 698 230 698 c 1
 230 572 l 1
 201 570 181 558 167 537 c 1
289 122 m 1
 332 122 364 161 364 201 c 0
 364 251 332 286 288 286 c 1
 288 410 l 1
 341 416 364 448 364 499 c 0
 364 553 321 574 291 574 c 0
 290 574 288 574 287 574 c 1
 287 698 l 1
 421 695 488 582 488 508 c 0
 488 403 440 353 426 350 c 1
 454 331 489 274 489 199 c 0
 489 75 372 -0 292 -0 c 0
 291 -0 291 -0 290 0 c 1
 289 122 l 1
167 160 m 1
 181 139 201 127 230 125 c 1
 230 -1 l 1
 152 -1 94 41 61 97 c 1
 167 160 l 1
EndSplineSet
Validated: 1
EndChar

StartChar: five
Encoding: 53 53 73
Width: 492
VWidth: 0
Flags: W
HStem: 0 126<188.655 204 287.09 338.458> 573 127<303.287 541.519>
LayerCount: 2
Back
Fore
SplineSet
541.518554688 574 m 1
 303.287109375 573 l 1
 261.043945312 442 l 1
 274.736328125 445 290.198242188 447 307.198242188 447 c 1
 278.801757812 324 l 1
 244.108398438 321 217.491210938 301 202.028320312 286 c 1
 107.727539062 354 l 1
 216.607421875 700 l 1
 570.607421875 700 l 1
 541.518554688 574 l 1
361.198242188 447 m 1
 503.505859375 444 542.87890625 333 517.483398438 223 c 0
 484.931640625 82 363.461914062 2 258 0 c 1
 287.08984375 126 l 1
 338.166992188 135 378.170898438 174 389.71484375 224 c 0
 402.643554688 280 369.646484375 319 332.801757812 324 c 1
 361.198242188 447 l 1
171.40234375 175 m 1
 180.245117188 144 207.244140625 131 233.08984375 126 c 1
 204 0 l 1
 120 0 70.6201171875 46 52.703125 107 c 1
 171.40234375 175 l 1
EndSplineSet
EndChar

StartChar: seven
Encoding: 55 55 74
Width: 435
VWidth: 0
Flags: W
HStem: 0 21G<136 298.777> 0 21G<136 298.777> 510 188<392.057 503.906> 572 126<181.146 392.057>
LayerCount: 2
Back
Fore
SplineSet
181.146484375 698 m 1x10
 570.146484375 698 l 1x10
 541.287109375 573 l 1
 526.748046875 562 500.12890625 529 488.743164062 510 c 1
 353.743164062 510 l 1x20
 392.056640625 572 l 1
 152.056640625 572 l 1
 181.146484375 698 l 1x10
326.890625 450 m 1
 459.890625 450 l 1
 386.260742188 300 324.553710938 154 273 0 c 1
 136 0 l 1x80
 189.477539062 158 249.106445312 295 326.890625 450 c 1
EndSplineSet
EndChar

StartChar: eight
Encoding: 56 56 75
Width: 486
VWidth: 0
Flags: W
HStem: 0 21G<190 215.777 275 296> 0 21G<190 215.777 275 296> 678 20G<340.146 370.529 428.529 468.146>
LayerCount: 2
Back
Fore
SplineSet
302.858398438 125 m 1xa0
 337.936523438 134 370.092773438 165 378.404296875 201 c 0
 389.948242188 251 368.2578125 274 338.3359375 283 c 1
 368.348632812 413 l 1
 406.887695312 424 431.966796875 446 443.741210938 497 c 0
 456.208007812 551 421.1328125 568 403.826171875 571 c 1
 433.146484375 698 l 1
 503.146484375 698 594.907226562 619 567.203125 499 c 0
 547.810546875 415 490.265625 352 475.573242188 349 c 1
 499.186523438 330 522.103515625 269 505.942382812 199 c 0
 472.236328125 53 316 0 276 0 c 0
 276 0 275 0 275 0 c 1
 302.858398438 125 l 1xa0
240.858398438 125 m 1
 211 0 l 1
 211 0 210 0 210 0 c 0
 170 0 38.236328125 53 71.9423828125 199 c 0
 88.103515625 269 139.186523438 330 171.573242188 349 c 1
 158.265625 352 128.810546875 415 148.203125 499 c 0
 175.907226562 619 305.146484375 698 375.146484375 698 c 1
 345.826171875 571 l 1
 327.1328125 568 284.208007812 551 271.741210938 497 c 0
 259.966796875 446 274.887695312 424 308.348632812 413 c 1
 278.3359375 283 l 1
 244.2578125 274 211.948242188 251 200.404296875 201 c 0
 192.092773438 165 209.936523438 134 240.858398438 125 c 1
EndSplineSet
EndChar

StartChar: nine
Encoding: 57 57 76
Width: 504
VWidth: 0
Flags: W
HStem: 1 126<200.655 218.23 301.32 340.245> 274 118<269.854 281.258 362.5 409.475> 576 124<303.203 350.98 433.607 440.791>
LayerCount: 2
Back
Fore
SplineSet
281.2578125 274 m 1
 157.2578125 274 108.881835938 359 137.970703125 485 c 0
 166.830078125 610 278.376953125 699 379.607421875 700 c 1
 350.98046875 576 l 1
 315.056640625 572 269.668945312 540 258.356445312 491 c 0
 239.424804688 409 289.193359375 395 307.0390625 390 c 1
 281.2578125 274 l 1
183.094726562 178 m 1
 198.629882812 150 205.474609375 132 247.3203125 127 c 1
 218.23046875 1 l 1
 140.23046875 1 87.7744140625 51 69.5498046875 115 c 1
 183.094726562 178 l 1
272.461914062 2 m 1
 301.3203125 127 l 1
 376.783203125 142 406.254882812 248 418.260742188 300 c 1
 395.797851562 285 365.2578125 274 335.2578125 274 c 1
 362.5 392 l 1
 362.5 392 363.5 392 363.5 392 c 0
 384.654296875 397 435.348632812 413 453.125 490 c 0
 462.12890625 529 441.826171875 571 404.749023438 575 c 1
 433.607421875 700 l 1
 608.607421875 700 596.435546875 513 556.725585938 341 c 0
 529.71484375 224 445.384765625 6 272.461914062 2 c 1
EndSplineSet
EndChar

StartChar: zero
Encoding: -1 48 77
Width: 1024
VWidth: 0
Flags: HM
LayerCount: 2
Back
Fore
SplineSet
404 698 m 1
 404 573 l 1
 351 560 346 461 346 398 c 0
 346 371 346 360 346 339 c 0
 346 248 348 137 403 124 c 1
 403 0 l 1
 337 3 221 60 221 353 c 0
 221 602 315 693 404 698 c 1
464 698 m 1
 553 693 647 602 647 353 c 0
 647 60 531 3 465 0 c 1
 465 124 l 1
 520 137 522 248 522 339 c 0
 522 360 522 371 522 398 c 0
 522 461 517 560 464 573 c 1
 464 698 l 1
EndSplineSet
Validated: 1
EndChar

StartChar: semicolon
Encoding: 59 59 78
Width: 291
VWidth: 0
Flags: W
HStem: 285 151<208.416 290.015>
VStem: 174.112 150<317.812 402.504>
LayerCount: 2
Back
Fore
SplineSet
174.112304688 360 m 0
 183.80859375 402 224.658203125 436 266.658203125 436 c 0
 308.658203125 436 333.80859375 402 324.112304688 360 c 0
 314.416015625 318 273.797851562 285 231.797851562 285 c 0
 189.797851562 285 164.416015625 318 174.112304688 360 c 0
171.690429688 -23 m 1
 44.6904296875 -23 l 1
 116.782226562 129 l 1
 243.782226562 129 l 1
 171.690429688 -23 l 1
EndSplineSet
EndChar

StartChar: quotesingle
Encoding: -1 39 79
Width: 227
VWidth: 0
Flags: HMW
LayerCount: 2
Back
Fore
SplineSet
177 465 m 1
 50 465 l 1
 50 736 l 1
 177 736 l 1
 177 465 l 1
EndSplineSet
Validated: 1
EndChar

StartChar: ampersand
Encoding: -1 38 80
Width: 760
VWidth: 0
Flags: HMW
LayerCount: 2
Back
Fore
SplineSet
307 576 m 1
 307 576 281 567 281 534 c 0
 281 499 301 493 307 487 c 1
 307 267 l 1
 283 295 l 1
 241 272 207 249 207 202 c 0
 207 158 249 133 307 133 c 1
 307 1 l 1
 132 1 50 85 50 212 c 0
 50 304 131 368 201 402 c 1
 177 426 144 484 144 526 c 0
 144 619 203 679 307 700 c 1
 307 576 l 1
367 698 m 1
 474 679 527 616 527 518 c 0
 527 443 464 384 413 359 c 1
 481 278 l 1
 493 297 501 318 505 343 c 1
 644 343 l 1
 634 272 609 225 570 178 c 1
 713 0 l 1
 519 0 l 1
 467 70 l 1
 443 48 402 24 367 14 c 1
 367 166 l 1
 374 171 375 172 382 178 c 1
 367 196 l 1
 367 484 l 1
 378 493 394 502 394 531 c 0
 394 555 390 568 367 580 c 1
 367 698 l 1
EndSplineSet
Validated: 1
EndChar

StartChar: dollar
Encoding: -1 36 81
Width: 544
VWidth: 0
Flags: HMW
LayerCount: 2
Back
SplineSet
308 757 m 1
 308 698 l 1
 349 692 383 680 416 646 c 0
 452 609 472 561 473 528 c 1
 337 502 l 1
 335 532 331 542 308 562 c 1
 308 425 l 1
 412 391 493 331 493 224 c 0
 493 123 425 19 308 0 c 1
 308 -53 l 1
 233 -53 l 1
 233 0 l 1
 183 11 145 24 105 64 c 0
 67 101 50 137 50 185 c 1
 183 214 l 1
 184 169 203 147 233 136 c 1
 233 312 l 1
 132 348 68 399 68 506 c 0
 68 605 141 684 232 699 c 1
 232 757 l 1
 308 757 l 1
EndSplineSet
Validated: 1
Fore
Validated: 1
EndChar

StartChar: greater
Encoding: 62 62 82
Width: 414
VWidth: 0
Flags: W
LayerCount: 2
Back
Fore
SplineSet
145.434570312 500 m 5
 458.33984375 322 l 5
 443.564453125 258 l 5
 48.23828125 79 l 5
 77.55859375 206 l 5
 273.413085938 292 l 5
 115.420898438 370 l 5
 145.434570312 500 l 5
EndSplineSet
EndChar

StartChar: less
Encoding: 60 60 83
Width: 414
VWidth: 0
Flags: W
LayerCount: 2
Back
Fore
SplineSet
499.434570312 500 m 5
 469.420898438 370 l 5
 275.413085938 292 l 5
 431.55859375 206 l 5
 402.23828125 79 l 5
 89.564453125 258 l 5
 104.33984375 322 l 5
 499.434570312 500 l 5
EndSplineSet
EndChar

StartChar: parenleft
Encoding: -1 40 84
Width: 262
VWidth: 0
Flags: HMW
LayerCount: 2
Back
Fore
SplineSet
212 735 m 1
 213 648 l 1
 174 625 154 593 153 521 c 2
 153 208 l 2
 153 206 153 204 153 202 c 0
 153 104 178 73 213 51 c 1
 213 -37 l 1
 71 22 50 93 50 189 c 1
 50 510 l 1
 50 652 113 696 212 735 c 1
EndSplineSet
Validated: 1
EndChar

StartChar: parenright
Encoding: -1 41 85
Width: 264
VWidth: 0
Flags: HMW
LayerCount: 2
Back
Fore
SplineSet
50 735 m 1
 149 696 211 652 213 510 c 1
 213 189 l 1
 212 93 192 22 50 -37 c 1
 50 51 l 1
 85 73 110 104 110 202 c 0
 110 204 110 206 110 208 c 2
 110 521 l 2
 109 593 89 625 50 648 c 1
 50 735 l 1
EndSplineSet
Validated: 1
EndChar

StartChar: exclam
Encoding: -1 33 86
Width: 329
VWidth: 0
Flags: HMW
LayerCount: 2
Back
Fore
SplineSet
88 53 m 0
 88 95 121 129 163 129 c 0
 205 129 238 95 238 53 c 0
 238 11 205 -22 163 -22 c 0
 121 -22 88 11 88 53 c 0
100 166 m 1
 100 700 l 1
 229 700 l 1
 229 166 l 1
 100 166 l 1
EndSplineSet
Validated: 1
EndChar

StartChar: three
Encoding: 51 51 87
Width: 484
VWidth: 0
Flags: W
HStem: 0 122<180.475 194.77 282.166 334.601> 286 124<282.656 363.362> 574 124<273.348 327.057 413.146 431.287>
LayerCount: 2
Back
Fore
SplineSet
255.9765625 537 m 1
 164.520507812 600 l 1
 210.44921875 656 278.146484375 698 356.146484375 698 c 1
 327.056640625 572 l 1
 297.594726562 570 274.82421875 558 255.9765625 537 c 1
282.166015625 122 m 1
 325.166015625 122 364.169921875 161 373.404296875 201 c 0
 387.256835938 261 372.028320312 286 254.028320312 286 c 1
 282.65625 410 l 1
 402.65625 410 428.3515625 439 442.203125 499 c 0
 454.669921875 553 418.518554688 574 388.518554688 574 c 0
 387.518554688 574 385.518554688 574 384.518554688 574 c 1
 413.146484375 698 l 1
 546.453125 695 587.365234375 582 570.28125 508 c 0
 547.88671875 411 506.498046875 366 471.803710938 350 c 1
 495.416992188 331 523.56640625 284 503.942382812 199 c 0
 475.315429688 75 337 0 257 0 c 0
 256 0 256 0 255 0 c 1
 282.166015625 122 l 1
168.938476562 160 m 1
 178.090820312 139 195.3203125 127 223.858398438 125 c 1
 194.76953125 -1 l 1
 116.76953125 -1 66.92578125 30 48.39453125 97 c 1
 168.938476562 160 l 1
EndSplineSet
EndChar

StartChar: yen
Encoding: 165 165 88
Width: 542
VWidth: 0
Flags: W
HStem: 0 21G<203 344.617> 0 21G<203 344.617> 238 57<118.106 257.946 419.106 546.485> 351 58<144.425 256.425 476.194 572.804> 678 20G<234.146 372.445 483.895 631.146>
LayerCount: 2
Back
Fore
SplineSet
371.146484375 698 m 1049,0,-1
234.146484375 698 m 1,1,-1
 371.146484375 698 l 1,2,-1
 384.970703125 485 l 1,3,-1
 494.146484375 698 l 1,4,-1
 631.146484375 698 l 1,5,-1
 476.194335938 408 l 1,6,-1
 586.194335938 408 l 1,7,-1
 572.803710938 350 l 1,8,-1
 445.803710938 350 l 1,9,-1
 419.106445312 295 l 1,10,-1
 560.106445312 295 l 1,11,-1
 546.485351562 236 l 1,12,-1
 394.485351562 236 l 1,13,-1
 340 0 l 1,14,-1
 203 0 l 1,15,-1
 257.946289062 238 l 1,16,-1
 104.946289062 238 l 1,17,-1
 118.106445312 295 l 1,18,-1
 261.106445312 295 l 1,19,-1
 258.03515625 351 l 1,20,-1
 131.03515625 351 l 1,21,-1
 144.424804688 409 l 1,22,-1
 256.424804688 409 l 1,23,-1
 234.146484375 698 l 1,1,-1
EndSplineSet
EndChar

StartChar: EURO
Encoding: 256 8364 89
Width: 567
VWidth: 0
Flags: W
HStem: 258 59<123.186 158.564 309.186 467.564> 376 60<150.658 186.037 336.658 494.807> 678 20G<408.416 434.529 494.529 523.531>
LayerCount: 2
Back
Fore
SplineSet
338.461914062 2 m 1
 370.783203125 142 l 1
 400.861328125 151 419.092773438 165 426.942382812 199 c 2
 434.715820312 237 l 1
 559.94140625 186 l 1
 553.015625 156 524.548828125 102 478.775390625 64 c 0
 431.771484375 25 387.692382812 3 338.461914062 2 c 1
499.146484375 698 m 1
 547.915039062 697 581.8359375 675 610.83203125 636 c 0
 639.059570312 598 642.592773438 544 635.666015625 514 c 1
 486.891601562 463 l 1
 496.665039062 501 l 2
 504.514648438 535 492.747070312 549 466.82421875 558 c 1
 499.146484375 698 l 1
439.146484375 698 m 1
 406.82421875 558 l 1
 364.361328125 543 358.822265625 532 348.6640625 488 c 2
 336.658203125 436 l 1
 508.658203125 436 l 1
 494.806640625 376 l 1
 322.806640625 376 l 1
 309.185546875 317 l 1
 481.185546875 317 l 1
 467.564453125 258 l 1
 295.564453125 258 l 1
 282.635742188 202 l 2
 271.784179688 155 289.553710938 154 310.552734375 141 c 1
 278.461914062 2 l 1
 198.846679688 8 178.388671875 45 154.778320312 90 c 0
 140.2421875 118 135.399414062 149 141.017578125 182 c 2
 158.564453125 258 l 1
 109.564453125 258 l 1
 123.185546875 317 l 1
 172.185546875 317 l 1
 186.037109375 377 l 1
 137.037109375 377 l 1
 150.658203125 436 l 1
 199.658203125 436 l 1
 213.510742188 496 l 2
 223.775390625 540.462890625 239.341796875 575.84375 275.522460938 613 c 0
 325.7578125 666 377.684570312 696 439.146484375 698 c 1
EndSplineSet
EndChar

StartChar: HKD
Encoding: 257 22291 90
Width: 843
VWidth: 0
Flags: W
HStem: 678 20G<206.529 253.146 282.529 330.146 354.529 402.146 433.552 486.146>
VStem: 396.664 42<488 611>
LayerCount: 2
Back
Fore
SplineSet
287.146484375 698 m 1
 330.146484375 698 l 1
 281.6640625 488 l 1
 238.6640625 488 l 1
 258.287109375 573 l 1
 249.287109375 573 l 1
 258.752929688 614 l 1
 267.752929688 614 l 1
 287.146484375 698 l 1
359.146484375 698 m 1
 402.146484375 698 l 1
 353.6640625 488 l 1
 310.6640625 488 l 1
 359.146484375 698 l 1
444.146484375 698 m 1
 486.146484375 698 l 1
 440.060546875 611 l 1
 438.6640625 488 l 1
 396.6640625 488 l 1
 398.060546875 611 l 1
 444.146484375 698 l 1
242.752929688 614 m 1
 233.287109375 573 l 1
 224.287109375 573 l 1
 204.6640625 488 l 1
 162.6640625 488 l 1
 211.146484375 698 l 1
 253.146484375 698 l 1
 233.752929688 614 l 1
 242.752929688 614 l 1
563.8125 124.2578125 m 1
 524.170898438 -47.4453125 l 1
 453.295898438 -47.4453125 l 1
 467.176757812 12.677734375 l 1
 405.739257812 44.2373046875 379.54296875 115.993164062 388.477539062 158 c 1
 525.866210938 203 l 1
 514.9375 147 564.3203125 127 564.3203125 127 c 1
 563.6875 124.2578125 l 1
 563.8125 124.2578125 l 1
818.610351562 682.142578125 m 1
 873.793945312 649.256835938 894.404296875 580.013671875 892.669921875 553 c 1
 752.743164062 510 l 1
 758.59375 557 721.1328125 568 721.1328125 568 c 1
 751.607421875 700 l 1
 751.857421875 700 l 1
 763.29296875 749.532226562 l 1
 834.16796875 749.532226562 l 1
 818.610351562 682.142578125 l 1
708.16796875 749.532226562 m 1
 668.52734375 577.830078125 l 1
 668.40234375 577.830078125 l 1
 666.1328125 568 l 1
 643.748046875 562 617.9765625 537 612.435546875 513 c 0
 606.239257812 486.162109375 618.768554688 468.1484375 639.727539062 453.625976562 c 1
 604.828125 302.4609375 l 1
 587.639648438 309.248046875 570.963867188 315.713867188 557.5703125 323 c 0
 494.419921875 357 453.040039062 403 477.28125 508 c 0
 498.301757812 599.051757812 563.912109375 652.7734375 621.07421875 679.282226562 c 1
 637.29296875 749.532226562 l 1
 708.16796875 749.532226562 l 1
688.833984375 428.098632812 m 1
 712.057617188 417.793945312 736.481445312 407.489257812 755.961914062 394 c 0
 808.650390625 358 864.799804688 311 841.250976562 209 c 0
 821.133789062 121.861328125 746.446289062 43.0478515625 663.788085938 11.537109375 c 1
 650.170898438 -47.4453125 l 1
 579.295898438 -47.4453125 l 1
 589.557617188 -3 l 2
 589.474609375 -3 589.390625 -3 589.307617188 -3 c 2
 619.3203125 127 l 1
 644.012695312 130 686.629882812 150 698.866210938 203 c 0
 707.5234375 240.5 685.526367188 263.25 654.701171875 280.25 c 1
 688.833984375 428.098632812 l 1
EndSplineSet
EndChar

StartChar: NameMe.167
Encoding: 258 -1 91
Width: 699
VWidth: 0
Flags: W
HStem: 646 52<288.75 304.699>
VStem: 175.361 42.8467<527.005 543>
LayerCount: 2
Back
Fore
SplineSet
220.6640625 488 m 1
 186.6640625 488 170.513671875 522 175.361328125 543 c 1
 218.208007812 551 l 1
 214.283203125 534 229.66796875 527 229.66796875 527 c 1
 220.6640625 488 l 1
285.146484375 698 m 1
 317.146484375 698 331.296875 664 327.140625 646 c 1
 284.293945312 638 l 1
 287.98828125 654 275.911132812 658 275.911132812 658 c 1
 285.146484375 698 l 1
269.146484375 698 m 1
 259.680664062 657 l 1
 252.44921875 656 245.602539062 648 243.986328125 641 c 0
 238.907226562 619 269.676757812 618 287.13671875 607 c 0
 303.59765625 596 317.827148438 584 310.439453125 552 c 0
 302.58984375 518 262.6640625 488 236.6640625 488 c 1
 245.66796875 527 l 1
 254.360351562 530 267.4375 539 270.208007812 551 c 0
 275.749023438 575 244.44140625 578 228.51953125 587 c 0
 209.828125 597 196.598632812 609 203.755859375 640 c 0
 213.9140625 684 253.146484375 698 269.146484375 698 c 1
419.8125 124.2578125 m 1
 380.170898438 -47.4453125 l 1
 309.295898438 -47.4453125 l 1
 323.176757812 12.677734375 l 1
 261.739257812 44.2373046875 235.54296875 115.993164062 244.477539062 158 c 1
 381.866210938 203 l 1
 370.9375 147 420.3203125 127 420.3203125 127 c 1
 419.6875 124.2578125 l 1
 419.8125 124.2578125 l 1
674.610351562 682.142578125 m 1
 729.793945312 649.256835938 750.404296875 580.013671875 748.669921875 553 c 1
 608.743164062 510 l 1
 614.59375 557 577.1328125 568 577.1328125 568 c 1
 607.607421875 700 l 1
 607.857421875 700 l 1
 619.29296875 749.532226562 l 1
 690.16796875 749.532226562 l 1
 674.610351562 682.142578125 l 1
564.16796875 749.532226562 m 1
 524.52734375 577.830078125 l 1
 524.40234375 577.830078125 l 1
 522.1328125 568 l 1
 499.748046875 562 473.9765625 537 468.435546875 513 c 0
 462.239257812 486.162109375 474.768554688 468.1484375 495.727539062 453.625976562 c 1
 460.828125 302.4609375 l 1
 443.639648438 309.248046875 426.963867188 315.713867188 413.5703125 323 c 0
 350.419921875 357 309.040039062 403 333.28125 508 c 0
 354.301757812 599.051757812 419.912109375 652.7734375 477.07421875 679.282226562 c 1
 493.29296875 749.532226562 l 1
 564.16796875 749.532226562 l 1
544.833984375 428.098632812 m 1
 568.057617188 417.793945312 592.481445312 407.489257812 611.961914062 394 c 0
 664.650390625 358 720.799804688 311 697.250976562 209 c 0
 677.133789062 121.861328125 602.446289062 43.0478515625 519.788085938 11.537109375 c 1
 506.170898438 -47.4453125 l 1
 435.295898438 -47.4453125 l 1
 445.557617188 -3 l 2
 445.474609375 -3 445.390625 -3 445.307617188 -3 c 2
 475.3203125 127 l 1
 500.012695312 130 542.629882812 150 554.866210938 203 c 0
 563.5234375 240.5 541.526367188 263.25 510.701171875 280.25 c 1
 544.833984375 428.098632812 l 1
EndSplineSet
EndChar

StartChar: zero
Encoding: 48 48 92
Width: 486
VWidth: 0
Flags: W
HStem: 0 124<188.629 212 302.628 334.192> 573 125<311.967 345.287 432.492 455.286>
LayerCount: 2
Back
Fore
SplineSet
374.146484375 698 m 1
 345.287109375 573 l 1
 289.286132812 560 261.430664062 461 246.885742188 398 c 0
 240.65234375 371 238.112304688 360 233.264648438 339 c 0
 212.254882812 248 188.62890625 137 240.627929688 124 c 1
 212 0 l 1
 146.692382812 3 38.236328125 53 107.49609375 353 c 4
 166.598632812 609 283.991210938 693 374.146484375 698 c 1
434.146484375 698 m 1
 521.991210938 693 600.830078125 610 541.49609375 353 c 4
 472.236328125 53 340.692382812 3 274 0 c 1
 302.627929688 124 l 1
 360.62890625 137 388.254882812 248 409.264648438 339 c 0
 414.112304688 360 416.65234375 371 422.885742188 398 c 0
 437.430664062 461 455.286132812 560 405.287109375 573 c 1
 434.146484375 698 l 1
EndSplineSet
EndChar

StartChar: numbersign
Encoding: -1 35 93
Width: 788
VWidth: 0
Flags: HMW
LayerCount: 2
Back
Fore
SplineSet
285 22 m 1
 164 22 l 1
 191 176 l 1
 51 176 l 1
 76 297 l 1
 213 297 l 1
 231 404 l 1
 85 404 l 1
 107 525 l 1
 253 525 l 1
 280 682 l 1
 401 682 l 1
 373 524 l 1
 479 524 l 1
 506 682 l 1
 627 682 l 1
 599 524 l 1
 737 524 l 1
 718 403 l 1
 578 404 l 1
 559 296 l 1
 702 296 l 1
 684 175 l 1
 538 176 l 1
 511 22 l 1
 391 22 l 1
 417 176 l 1
 312 176 l 1
 285 22 l 1
457 404 m 1
 352 404 l 1
 333 297 l 1
 439 296 l 1
 457 404 l 1
EndSplineSet
Validated: 1
EndChar

StartChar: quotesingle
Encoding: 39 39 94
Width: 187
VWidth: 0
Flags: W
HStem: 465 271<199.919 264.354>
VStem: 137.354 189.565
LayerCount: 2
Back
Fore
SplineSet
264.353515625 465 m 1
 137.353515625 465 l 1
 199.918945312 736 l 1
 326.918945312 736 l 1
 264.353515625 465 l 1
EndSplineSet
EndChar

StartChar: ampersand
Encoding: 38 38 95
Width: 687
VWidth: 0
Flags: W
HStem: 682 20G<364.646 414.452 473.99 529.902>
LayerCount: 2
Back
Fore
SplineSet
390.44140625 578 m 1
 390.44140625 578 362.364257812 569 354.745117188 536 c 0
 346.665039062 501 365.279296875 495 369.89453125 489 c 1
 319.103515625 269 l 1
 301.567382812 297 l 5
 271.48828125 275 240.948242188 251 230.096679688 204 c 4
 219.982421875 160.1875 241.509765625 134.68359375 288.166992188 135 c 1
 257.692382812 3 l 5
 107.391601562 3 47.3603515625 92.5234375 75.40625 214 c 4
 96.6455078125 306 166.420898438 370 244.270507812 404 c 1
 221.887695312 424 206.202148438 486 215.8984375 528 c 0
 237.369140625 621 310.221679688 681 419.069335938 702 c 1
 390.44140625 578 l 1
478.607421875 700 m 1
 581.197265625 681.00390625 619.624023438 617.7734375 597.051757812 520 c 0
 579.736328125 445 505.422851562 383 446.34375 361 c 1
 495.643554688 280 l 1
 512.029296875 299 524.877929688 320 534.649414062 345 c 1
 673.649414062 345 l 1
 646.984375 274.442382812 611.439453125 226.874023438 561.556640625 180 c 1
 664.694335938 16 l 1
 467.694335938 16 l 1
 433.622070312 72 l 1
 404.54296875 50 358.002929688 26 320.694335938 16 c 1
 355.786132812 168 l 1
 363.940429688 173 365.170898438 174 373.556640625 180 c 1
 362.711914062 198 l 1
 429.202148438 486 l 1
 442.279296875 495 460.357421875 504 467.052734375 533 c 0
 472.59375 557 471.594726562 570 451.365234375 582 c 1
 478.607421875 700 l 1
EndSplineSet
EndChar

StartChar: dollar
Encoding: 36 36 96
Width: 501
Flags: W
LayerCount: 2
Back
Fore
SplineSet
366.833984375 428.098632812 m 1
 390.057617188 417.793945312 414.481445312 407.489257812 433.961914062 394 c 0
 486.650390625 358 542.799804688 311 519.250976562 209 c 0
 499.133789062 121.861328125 424.446289062 43.0478515625 341.788085938 11.537109375 c 1
 328.170898438 -47.4453125 l 1
 257.295898438 -47.4453125 l 1
 267.557617188 -3 l 2
 267.474609375 -3 267.390625 -3 267.307617188 -3 c 2
 297.3203125 127 l 1
 322.012695312 130 364.629882812 150 376.866210938 203 c 0
 385.5234375 240.5 363.526367188 263.25 332.701171875 280.25 c 1
 366.833984375 428.098632812 l 1
386.16796875 749.532226562 m 1
 346.52734375 577.830078125 l 1
 346.40234375 577.830078125 l 1
 344.1328125 568 l 1
 321.748046875 562 295.9765625 537 290.435546875 513 c 0
 284.239257812 486.162109375 296.768554688 468.1484375 317.727539062 453.625976562 c 1
 282.828125 302.4609375 l 1
 265.639648438 309.248046875 248.963867188 315.713867188 235.5703125 323 c 0
 172.419921875 357 131.040039062 403 155.28125 508 c 0
 176.301757812 599.051757812 241.912109375 652.7734375 299.07421875 679.282226562 c 1
 315.29296875 749.532226562 l 1
 386.16796875 749.532226562 l 1
496.610351562 682.142578125 m 1
 551.793945312 649.256835938 572.404296875 580.013671875 570.669921875 553 c 1
 430.743164062 510 l 1
 436.59375 557 399.1328125 568 399.1328125 568 c 1
 429.607421875 700 l 1
 429.857421875 700 l 1
 441.29296875 749.532226562 l 1
 512.16796875 749.532226562 l 1
 496.610351562 682.142578125 l 1
241.8125 124.2578125 m 1
 202.170898438 -47.4453125 l 1
 131.295898438 -47.4453125 l 1
 145.176757812 12.677734375 l 1
 83.7392578125 44.2373046875 57.54296875 115.993164062 66.4775390625 158 c 1
 203.866210938 203 l 1
 192.9375 147 242.3203125 127 242.3203125 127 c 1
 241.6875 124.2578125 l 1
 241.8125 124.2578125 l 1
EndSplineSet
EndChar

StartChar: braceleft
Encoding: 123 123 97
Width: 407
VWidth: 0
Flags: W
HStem: 635 100<398.753 453.602>
LayerCount: 2
Back
Fore
SplineSet
476.688476562 735 m 5
 453.6015625 635 l 5
 385.6015625 635 376.443359375 591 347.27734375 469 c 6
 327.653320312 384 l 6
 327.653320312 384 327.653320312 384 327.422851562 383 c 4
 323.498046875 366 300.727539062 354 275.341796875 348 c 5
 298.495117188 340 314.032226562 325 309.18359375 304 c 6
 287.020507812 208 l 6
 286.790039062 207 l 4
 258.854492188 86 267.083007812 61 321.083007812 61 c 5
 298.2265625 -38 l 5
 292.2265625 -38 286.2265625 -38 280.2265625 -38 c 4
 191.2265625 -38 104.842773438 -31 156.327148438 192 c 6
 178.952148438 290 l 6
 186.33984375 322 161.956054688 329 130.341796875 348 c 5
 169.8046875 363 196.420898438 370 206.194335938 408 c 6
 228.357421875 504 l 6
 277.0703125 715 367.688476562 735 476.688476562 735 c 5
EndSplineSet
EndChar

StartChar: underscore
Encoding: 95 95 98
Width: 510
VWidth: 0
Flags: W
HStem: -205 107<7.375 432.672>
LayerCount: 2
Back
Fore
SplineSet
432.671875 -205 m 1
 -17.328125 -205 l 1
 7.375 -98 l 1
 457.375 -98 l 1
 432.671875 -205 l 1
EndSplineSet
EndChar

StartChar: parenleft
Encoding: 40 40 99
Width: 330
VWidth: 0
Flags: W
LayerCount: 2
Back
Fore
SplineSet
401.227539062 746 m 5
 379.833007812 649 l 5
 335.5234375 626 306.905273438 593 289.282226562 521 c 6
 217.020507812 208 l 6
 216.55859375 206 216.096679688 204 215.635742188 202 c 4
 193.010742188 104 210.853515625 73 240.774414062 51 c 5
 218.149414062 -47 l 5
 89.078125 9 71.470703125 93 93.6337890625 189 c 5
 167.743164062 510 l 5
 200.064453125 650 283.993164062 706 401.227539062 746 c 5
EndSplineSet
EndChar

StartChar: parenright
Encoding: 41 41 100
Width: 330
VWidth: 0
Flags: HW
LayerCount: 2
Back
Fore
SplineSet
273.227539062 746 m 1
 371.993164062 706 430.064453125 650 397.743164062 510 c 1
 323.633789062 189 l 1
 301.470703125 93 245.078125 9 90.1494140625 -47 c 1
 112.774414062 51 l 1
 152.853515625 73 185.010742188 104 207.635742188 202 c 0
 208.096679688 204 208.55859375 206 209.020507812 208 c 2
 281.282226562 521 l 2
 296.905273438 593 283.5234375 626 249.833007812 649 c 1
 273.227539062 746 l 1
EndSplineSet
EndChar

StartChar: exclam
Encoding: 33 33 101
Width: 210
VWidth: 0
Flags: W
HStem: -22 151<76.5389 158.14> 680 20G<198.99 332.607>
VStem: 42.2363 290.371
LayerCount: 2
Back
Fore
SplineSet
42.236328125 53 m 0
 51.9326171875 95 92.7822265625 129 134.782226562 129 c 0
 176.782226562 129 201.932617188 95 192.236328125 53 c 0
 182.5390625 11 141.920898438 -22 99.9208984375 -22 c 0
 57.9208984375 -22 32.5390625 11 42.236328125 53 c 0
80.32421875 166 m 1
 203.607421875 700 l 1
 332.607421875 700 l 1
 209.32421875 166 l 1
 80.32421875 166 l 1
EndSplineSet
EndChar

StartChar: Percent_sign
Encoding: 37 37 102
Width: 629
VWidth: 0
Flags: W
HStem: 9 216<477.246 566.777> 467 216<221.983 311.515>
LayerCount: 2
Back
Fore
SplineSet
154.690429688 -23 m 1
 500.301757812 716 l 1
 626.301757812 716 l 1
 281.690429688 -23 l 1
 154.690429688 -23 l 1
158.749023438 575 m 0
 172.6015625 635 231.682617188 683 291.682617188 683 c 0
 351.682617188 683 388.6015625 635 374.749023438 575 c 0
 360.897460938 515 301.815429688 467 241.815429688 467 c 0
 181.815429688 467 144.897460938 515 158.749023438 575 c 0
414.01171875 117 m 0
 427.86328125 177 486.9453125 225 546.9453125 225 c 0
 606.9453125 225 643.86328125 177 630.01171875 117 c 0
 616.159179688 57 557.078125 9 497.078125 9 c 0
 437.078125 9 400.159179688 57 414.01171875 117 c 0
EndSplineSet
EndChar

StartChar: numbersign
Encoding: 35 35 103
Width: 888
VWidth: 0
Flags: W
HStem: 176 121<194.567 281.633 451.567 507.633 677.337 774.402> 404 121<278.206 374.271 543.975 600.271 769.975 861.04>
LayerCount: 2
Back
Fore
SplineSet
340.079101562 22 m 1
 219.079101562 22 l 1
 281.6328125 176 l 1
 141.6328125 176 l 1
 194.567382812 297 l 1
 331.567382812 297 l 1
 374.270507812 404 l 1
 228.270507812 404 l 1
 278.206054688 525 l 1
 424.206054688 525 l 1
 487.452148438 682 l 1
 608.452148438 682 l 1
 543.974609375 524 l 1
 649.974609375 524 l 1
 713.452148438 682 l 1
 834.452148438 682 l 1
 769.974609375 524 l 1
 907.974609375 524 l 1
 861.040039062 403 l 1
 721.270507812 404 l 1
 677.336914062 296 l 1
 820.336914062 296 l 1
 774.40234375 175 l 1
 628.6328125 176 l 1
 566.079101562 22 l 1
 446.079101562 22 l 1
 507.6328125 176 l 1
 402.6328125 176 l 1
 340.079101562 22 l 1
600.270507812 404 m 1
 495.270507812 404 l 1
 451.567382812 297 l 1
 557.336914062 296 l 1
 600.270507812 404 l 1
EndSplineSet
EndChar

StartChar: braceright
Encoding: 125 125 104
Width: 407
VWidth: 0
Flags: W
HStem: -38 99<114.083 167.316>
LayerCount: 2
Back
Fore
SplineSet
269.688476562 735 m 5
 378.688476562 735 460.0703125 715 411.357421875 504 c 6
 389.194335938 408 l 6
 381.420898438 370 404.8046875 363 437.341796875 348 c 5
 396.956054688 329 369.33984375 322 361.952148438 290 c 6
 339.327148438 192 l 6
 287.842773438 -31 198.2265625 -38 109.2265625 -38 c 4
 103.2265625 -38 97.2265625 -38 91.2265625 -38 c 5
 114.083007812 61 l 5
 168.083007812 61 187.854492188 86 215.790039062 207 c 4
 216.020507812 208 l 6
 238.18359375 304 l 6
 243.032226562 325 265.495117188 340 292.341796875 348 c 5
 269.727539062 354 252.498046875 366 256.422851562 383 c 4
 256.653320312 384 256.653320312 384 256.653320312 384 c 6
 276.27734375 469 l 6
 303.443359375 591 314.6015625 635 246.6015625 635 c 5
 269.688476562 735 l 5
EndSplineSet
EndChar

StartChar: k
Encoding: 107 107 105
Width: 452
VWidth: 0
Flags: W
HStem: 0 21G<30 159.617 291.432 427.585> 0 21G<30 159.617 291.432 427.585> 494 20G<400.321 546.711> 678 20G<186.529 316.146>
LayerCount: 2
Back
Fore
SplineSet
155 0 m 1xb0
 30 0 l 1
 191.146484375 698 l 1
 316.146484375 698 l 1
 155 0 l 1xb0
295.586914062 0 m 1
 242.176757812 257.0859375 l 1
 413.670898438 514 l 1
 546.7109375 514 l 1
 371.974609375 256.788085938 l 1
 427.584960938 0 l 1
 295.586914062 0 l 1
EndSplineSet
EndChar

StartChar: n
Encoding: 110 110 106
Width: 434
VWidth: 0
Flags: W
HStem: 0 21G<30 158.617 280 408.617> 0 21G<30 158.617 280 408.617> 398 121<245.167 288.368 357.338 365.877>
LayerCount: 2
Back
Fore
SplineSet
365.938476562 372.240234375 m 1xa0
 366.401367188 374.983398438 365.576171875 398 335.305664062 398 c 2
 329.403320312 398 l 1
 357.337890625 519 l 1
 363.240234375 519 l 0
 470.106445312 519 501.470703125 422.193359375 491.149414062 377.486328125 c 0
 404 0 l 1
 280 0 l 1
 365.938476562 372.240234375 l 1xa0
239.9375 372.236328125 m 1
 154 0 l 1
 30 0 l 1
 117.149414062 377.486328125 l 0
 128.15234375 425.142578125 203.6171875 519 310.400390625 519 c 0
 316.302734375 519 l 1
 288.368164062 398 l 1
 282.465820312 398 l 0
 251.5859375 398 240.452148438 373.985351562 239.9375 372.236328125 c 1
EndSplineSet
EndChar

StartChar: s
Encoding: 115 115 107
Width: 418
VWidth: 0
Flags: W
HStem: 497 19.6328G<271.412 301.651 338.86 393.687>
LayerCount: 2
Back
Fore
SplineSet
52.37890625 133.69921875 m 0
 52.861328125 136.318359375 l 1
 169.28515625 156.727539062 l 1
 168.907226562 153.53515625 l 0
 166.682617188 134.7109375 182.951171875 112.609375 206.912109375 110.633789062 c 0
 209.73828125 110.400390625 l 1
 183.139648438 -4.837890625 l 1
 179.991210938 -4.8359375 l 0
 85.96875 -4.7685546875 40.546875 69.494140625 52.37890625 133.69921875 c 0
474.921875 376.233398438 m 0
 474.334960938 373.703125 l 1
 358.248046875 354.703125 l 1
 358.697265625 357.9296875 l 0
 364.236328125 398.435546875 327.911132812 403.981445312 319.685546875 403.766601562 c 0
 316.404296875 403.681640625 l 1
 343.672851562 517 l 1
 346.790039062 517 l 0
 440.583984375 517 489.72265625 440.08984375 474.921875 376.233398438 c 0
276.208007812 406.1015625 m 5
 273.340820312 405.80859375 l 6
 232.247070312 401.57421875 224.720703125 376.524414062 221.475585938 361.885742188 c 4
 217.4765625 343.84765625 227.098632812 322.19921875 362.344726562 295.534179688 c 4
 411.831054688 285.35546875 453.125 242.586914062 434.052734375 159.977539062 c 4
 410.34375 57.2802734375 320.09765625 -4.8359375 227.072265625 -4.8359375 c 4
 223.926757812 -4.8359375 l 5
 250.237304688 109.125 l 5
 253.208007812 109.31640625 l 4
 268.1953125 110.280273438 306.5703125 120.536132812 314.7890625 152.125976562 c 4
 326.750976562 198.10546875 215.0390625 205.497070312 164.389648438 231.7265625 c 4
 120.975585938 255.330078125 92.650390625 286.939453125 111.955078125 370.557617188 c 4
 135.509765625 472.584960938 244.314453125 516.6328125 298.508789062 516.6328125 c 4
 301.651367188 516.6328125 l 5
 276.208007812 406.1015625 l 5
EndSplineSet
EndChar

StartChar: y
Encoding: 121 121 108
Width: 383
VWidth: 0
Flags: W
HStem: 494.696 20G<118.708 251.663 358.641 500.819>
LayerCount: 2
Back
Fore
SplineSet
143.672851562 112.504882812 m 1
 118.708007812 514.181640625 l 1
 250.198242188 514.696289062 l 1
 263.947265625 326.951171875 l 1
 264.465820312 327.901367188 264.37109375 327.7265625 264.887695312 328.676757812 c 1
 277.578125 110.900390625 l 1
 112.982421875 -182 l 5
 -12.7939453125 -182 l 5
 143.672851562 112.504882812 l 1
369.454101562 514.696289062 m 1
 500.819335938 514.180664062 l 1
 326.80859375 208 l 1
 315.020507812 208 l 1
 303.817382812 393.297851562 l 1
 369.454101562 514.696289062 l 1
EndSplineSet
EndChar

StartChar: z
Encoding: 122 122 109
Width: 348
VWidth: 0
Flags: W
HStem: -0.494141 118.689<196.02 321.886> 394.113 119.884<144.877 273.723>
LayerCount: 2
Back
Fore
SplineSet
414.448242188 400.438476562 m 1
 196.01953125 118.1953125 l 1
 349.1171875 117.456054688 l 1
 321.885742188 -0.494140625 l 1
 26.0966796875 -0.494140625 l 1
 52.90234375 115.61328125 l 1
 273.72265625 394.11328125 l 1
 117.19921875 394.11328125 l 1
 144.876953125 513.997070312 l 1
 440.723632812 514.249023438 l 1
 414.448242188 400.438476562 l 1
EndSplineSet
EndChar

StartChar: equal
Encoding: 61 61 110
Width: 418
VWidth: 0
Flags: W
HStem: 131 127<109.564 398.244> 325 127<154.353 443.032>
LayerCount: 2
Back
Fore
SplineSet
427.564453125 258 m 1
 398.244140625 131 l 1
 80.244140625 131 l 1
 109.564453125 258 l 1
 427.564453125 258 l 1
472.352539062 452 m 1
 443.032226562 325 l 1
 125.032226562 325 l 1
 154.352539062 452 l 1
 472.352539062 452 l 1
EndSplineSet
EndChar

StartChar: question
Encoding: 63 63 111
Width: 460
VWidth: 0
Flags: W
HStem: -22 150.62<168.326 249.984> 575.283 127.717<269.755 397.873>
LayerCount: 2
Back
Fore
SplineSet
133.844726562 53.3095703125 m 0
 143.560546875 95.39453125 184.45703125 128.620117188 226.541992188 128.620117188 c 0
 268.626953125 128.620117188 294.180664062 95.39453125 284.46484375 53.3095703125 c 0
 274.749023438 11.224609375 233.853515625 -22 191.768554688 -22 c 0
 149.68359375 -22 124.12890625 11.224609375 133.844726562 53.3095703125 c 0
233.436523438 526 m 1
 171.060546875 611 l 1
 209.833007812 649 272.30078125 703 380.30078125 703 c 0
 508.423828125 703 569.400390625 620.462890625 543.356445312 491 c 0
 502.708984375 288.94921875 327.1015625 276 326.719726562 276 c 9
 301.32421875 166 l 25
 172.32421875 166 l 25
 223.115234375 386 l 5
 340.62890625 388.315429688 394.44921875 400.443359375 415.818359375 493 c 0
 427.889648438 545.288085938 390.0859375 575.177734375 342.814453125 575.283203125 c 0
 299.791992188 575.379882812 261.3671875 554.439453125 233.436523438 526 c 1
EndSplineSet
EndChar

StartChar: grave
Encoding: 96 96 112
Width: 263
VWidth: 0
Flags: W
HStem: 605 152<261.675 350.768>
VStem: 223.768 127
LayerCount: 2
Back
Fore
SplineSet
261.674804688 605 m 1
 223.767578125 757 l 1
 350.767578125 757 l 1
 352.674804688 605 l 1
 261.674804688 605 l 1
EndSplineSet
EndChar

StartChar: backslash
Encoding: 92 92 113
Width: 501
VWidth: 0
Flags: HW
VStem: 218.69 127<-23 716>
LayerCount: 2
Back
Fore
SplineSet
498.690429688 -23 m 5
 153.079101562 716 l 5
 27.0791015625 716 l 5
 371.690429688 -23 l 5
 498.690429688 -23 l 5
EndSplineSet
EndChar

StartChar: sterling
Encoding: 163 163 114
Width: 520
VWidth: 0
Flags: W
HStem: 0 108<262.934 462> 289 107<141.193 172.49 330.424 444.721> 584 121.009<380.945 477.697>
LayerCount: 2
Back
Fore
SplineSet
491.051757812 520 m 1
 488.208007812 551 475.827148438 584 431.827148438 584 c 0
 399.827148438 584 370.1328125 568 358.358398438 517 c 2
 330.423828125 396 l 1
 469.423828125 396 l 1
 444.720703125 289 l 1
 304.720703125 289 l 1
 262.93359375 108 l 1
 486.93359375 108 l 1
 462 0 l 1
 106 0 l 1
 172.490234375 288 l 1
 116.490234375 288 l 1
 141.193359375 395 l 1
 197.193359375 395 l 1
 224.666015625 514 l 2
 248.541015625 617.4140625 323.146484375 705.008789062 453.541015625 705.008789062 c 0
 454.280273438 705.008789062 455.020507812 705.005859375 455.76171875 705 c 0
 483.76171875 705 506.607421875 700 525.530273438 691 c 0
 578.219726562 668 601.676757812 618 601.594726562 570 c 1
 491.051757812 520 l 1
EndSplineSet
EndChar

StartChar: asciicircum
Encoding: 94 94 115
Width: 374
VWidth: 0
Flags: W
HStem: 460.3 296.4<307.067 350.298>
LayerCount: 2
Back
Fore
SplineSet
133.068359375 460.299804688 m 25
 350.297851562 756.700195312 l 25
 439.098632812 756.700195312 l 25
 519.46875 460.299804688 l 25
 395.868164062 460.299804688 l 25
 358.036132812 603.099609375 l 25
 255.46875 460.299804688 l 25
 133.068359375 460.299804688 l 25
EndSplineSet
EndChar

StartChar: bracketleft
Encoding: 91 91 116
Width: 258
VWidth: 0
Flags: W
HStem: 629 110<328.214 389.214>
LayerCount: 2
Back
Fore
SplineSet
414.609375 739 m 29
 389.213867188 629 l 29
 328.213867188 629 l 29
 197.08203125 74 l 29
 261.08203125 74 l 29
 235.686523438 -36 l 29
 41.6865234375 -36 l 29
 220.609375 739 l 29
 414.609375 739 l 29
EndSplineSet
EndChar

StartChar: bracketright
Encoding: 93 93 117
Width: 258
VWidth: 0
Flags: W
HStem: -36 110<31.084 95.084>
LayerCount: 2
Back
Refer: 99 40 S -1 0 0 1 699 0 2
Refer: 99 40 N -1 0 0 1 699 0 2
Fore
SplineSet
184.611328125 739 m 25
 378.611328125 739 l 25
 199.688476562 -36 l 25
 5.6884765625 -36 l 25
 31.083984375 74 l 25
 95.083984375 74 l 25
 220.215820312 629 l 25
 159.215820312 629 l 25
 184.611328125 739 l 25
EndSplineSet
EndChar

StartChar: bar
Encoding: 124 124 118
Width: 205
VWidth: 0
Flags: W
VStem: 19.0635 310.011
LayerCount: 2
Back
Fore
SplineSet
224.07421875 754 m 1
 329.07421875 754 l 1
 124.063476562 -134 l 1
 19.0634765625 -134 l 1
 224.07421875 754 l 1
EndSplineSet
EndChar

StartChar: asciitilde
Encoding: 126 126 119
Width: 333
VWidth: 0
Flags: W
LayerCount: 2
Back
Fore
SplineSet
582.91796875 281.200195312 m 1
 304.934570312 134 347.391601562 400.200195312 112.90234375 271.600585938 c 1
 143.5 405 l 1
 395.127929688 531.600585938 344.30078125 266.400390625 613.5625 412.200195312 c 1
 582.91796875 281.200195312 l 1
EndSplineSet
EndChar

StartChar: quotedbl.alt
Encoding: 259 -1 120
Width: 359
VWidth: 0
Flags: W
HStem: 476 224<187.607 262.894 367.607 442.894>
LayerCount: 2
Back
Fore
SplineSet
442.893554688 476 m 1
 315.893554688 476 l 1
 367.607421875 700 l 1
 494.607421875 700 l 1
 442.893554688 476 l 1
262.893554688 476 m 1
 135.893554688 476 l 1
 187.607421875 700 l 1
 314.607421875 700 l 1
 262.893554688 476 l 1
EndSplineSet
EndChar

StartChar: TradeMarkSign
Encoding: 260 8482 121
Width: 403
VWidth: 0
Flags: W
HStem: 653 47<187.607 222.757 270.757 315.757>
VStem: 332.985 3<596.952 628> 349.607 37<669 700>
LayerCount: 2
Back
Refer: 96 36 N 1 0 0 1 285.617 0 2
Fore
SplineSet
326.607421875 700 m 1
 315.756835938 653 l 1
 270.756835938 653 l 1
 231.740234375 484 l 1
 183.740234375 484 l 1
 222.756835938 653 l 1
 176.756835938 653 l 1
 187.607421875 700 l 1
 326.607421875 700 l 1
491.607421875 700 m 1
 538.607421875 700 l 1
 488.740234375 484 l 1
 441.740234375 484 l 1
 491.607421875 700 l 1
349.607421875 700 m 1
 386.607421875 700 l 1
 411.209960938 564 l 1
 459.83203125 636 l 1
 463.83203125 636 l 1
 439.12890625 529 l 1
 409.740234375 484 l 1
 376.740234375 484 l 1
 342.451171875 669 l 1
 349.607421875 700 l 1
299.740234375 484 m 1
 332.985351562 628 l 1
 335.985351562 628 l 1
 356.513671875 522 l 1
 347.740234375 484 l 1
 299.740234375 484 l 1
EndSplineSet
EndChar

StartChar: tilde
Encoding: 261 732 149
Width: 300
VWidth: 0
Flags: W
VStem: 36.1416 306.399
LayerCount: 2
Back
Fore
SplineSet
319.075195312 89.0234375 m 1
 152.28515625 0.703125 176.834960938 156.422851562 36.1416015625 79.263671875 c 1
 59.5791015625 181.302734375 l 1
 210.556640625 257.263671875 180.984375 102.143554688 342.541015625 189.623046875 c 1
 319.075195312 89.0234375 l 1
EndSplineSet
EndChar

StartChar: acute
Encoding: 180 180 150
Width: 216
VWidth: 0
Flags: W
HStem: 605 152
LayerCount: 2
Back
Fore
SplineSet
117 605 m 1
 190 757 l 1
 63 757 l 1
 26 605 l 1
 117 605 l 1
EndSplineSet
EndChar

StartChar: guillemotright
Encoding: 187 187 151
Width: 414
VWidth: 0
Flags: W
LayerCount: 2
Back
SplineSet
135.965820312 477.180664062 m 1
 311.0390625 320.700195312 l 1
 296.854492188 259.259765625 l 1
 49.306640625 101.819335938 l 1
 77.4541015625 223.740234375 l 1
 182.470703125 291.900390625 l 1
 107.153320312 352.380859375 l 1
 135.965820312 477.180664062 l 1
347.166015625 477.180664062 m 1
 522.239257812 320.700195312 l 1
 508.0546875 259.259765625 l 1
 260.506835938 101.819335938 l 1
 288.654296875 223.740234375 l 1
 393.670898438 291.900390625 l 1
 318.353515625 352.380859375 l 1
 347.166015625 477.180664062 l 1
EndSplineSet
Fore
EndChar

StartChar: Oslash
Encoding: 216 216 152
Width: 662
VWidth: 0
Flags: W
HStem: 685 20G<401.762 463.144 517.144 562.62>
LayerCount: 2
Back
Fore
SplineSet
735.911132812 658 m 1
 793.594726562 570 l 1
 665.51171875 474.345703125 l 1
 601.01953125 195 l 2
 567.774414062 51 417.845703125 -5 357.845703125 -5 c 1
 390.62890625 137 l 1
 395.62890625 137 448.399414062 149 460.01953125 195 c 2
 495.135742188 347.107421875 l 1
 294.552734375 197.309570312 l 1
 294.01953125 195 l 2
 283.399414062 149 330.62890625 137 335.62890625 137 c 1
 302.845703125 -5 l 1
 259.552734375 -5 183.422851562 24.1552734375 156.87109375 94.48828125 c 1
 87.927734375 43 l 1
 30.244140625 131 l 1
 160.744140625 228.458984375 l 1
 228.974609375 524 l 2
 242.827148438 584 335.76171875 705 467.76171875 705 c 1
 435.209960938 564 l 1
 388.978515625 563 367.435546875 513 366.28125 508 c 2
 331.119140625 355.697265625 l 1
 531.703125 505.495117188 l 1
 532.28125 508 l 2
 533.435546875 513 534.978515625 563 489.209960938 564 c 1
 521.76171875 705 l 1
 603.477539062 705 648.94140625 657.529296875 668.278320312 607.491210938 c 1
 735.911132812 658 l 1
EndSplineSet
EndChar

StartChar: oslash
Encoding: 248 248 153
Width: 498
VWidth: 0
Flags: W
HStem: -1 118<221.992 230.77 299.012 341.041> 398 118<279.098 322.886 391.128 399.316>
LayerCount: 2
Back
Fore
SplineSet
558.125 490 m 1
 597.2734375 430 l 1
 516.090820312 368.5703125 l 1
 463.552734375 141 l 2
 453.163085938 96 381.76953125 -1 277.76953125 -1 c 2
 271.76953125 -1 l 1
 299.01171875 117 l 1
 305.01171875 117 l 2
 336.2421875 118 346.552734375 141 349.091796875 152 c 2
 374.325195312 261.298828125 l 1
 221.18359375 145.41796875 l 1
 219.953125 129.91796875 226.596679688 117 252.01171875 117 c 2
 258.01171875 117 l 1
 230.76953125 -1 l 1
 224.76953125 -1 l 2
 165.125 -1 130.071289062 28.888671875 112.348632812 63.0654296875 c 1
 58.0791015625 22 l 1
 18.931640625 82 l 1
 100.11328125 143.4296875 l 1
 153.806640625 376 l 2
 164.1953125 421 237.127929688 516 344.127929688 516 c 2
 350.127929688 516 l 1
 322.885742188 398 l 1
 316.885742188 398 l 2
 283.885742188 398 273.114257812 373 270.8046875 363 c 2
 245.513671875 253.452148438 l 1
 398.987304688 369.583007812 l 1
 400.787109375 384.340820312 396.018554688 398 369.885742188 398 c 2
 363.885742188 398 l 1
 391.127929688 516 l 1
 397.127929688 516 l 2
 455.411132812 516 489.701171875 485.58203125 506.607421875 451.017578125 c 1
 558.125 490 l 1
EndSplineSet
EndChar

StartChar: dieresis
Encoding: 168 168 154
Width: 320
VWidth: 0
Flags: HMW
LayerCount: 2
Back
Fore
SplineSet
156.528320312 678 m 0
 166.224609375 720 207.07421875 754 249.07421875 754 c 0
 291.07421875 754 316.224609375 720 306.528320312 678 c 0
 296.83203125 636 256.213867188 603 214.213867188 603 c 0
 172.213867188 603 146.83203125 636 156.528320312 678 c 0
326.528320312 678 m 0
 336.224609375 720 377.07421875 754 419.07421875 754 c 0
 461.07421875 754 486.224609375 720 476.528320312 678 c 0
 466.83203125 636 426.213867188 603 384.213867188 603 c 0
 342.213867188 603 316.83203125 636 326.528320312 678 c 0
EndSplineSet
EndChar

StartChar: cent
Encoding: 162 162 155
Width: 494
VWidth: 0
Flags: W
LayerCount: 2
Back
Fore
SplineSet
314.3984375 136 m 1
 314.3984375 136 348.013671875 143 363.32421875 166 c 0
 371.094726562 178 373.633789062 189 376.866210938 203 c 2
 379.63671875 215 l 1
 510.017578125 182 l 1
 491.973632812 103.842773438 426.5078125 39.27734375 356.482421875 10.7509765625 c 1
 342.91796875 -48 l 1
 271.91796875 -48 l 1
 281.845703125 -5 l 1
 302.854492188 86 l 1
 314.3984375 136 l 1
455.919921875 749 m 1
 526.919921875 749 l 1
 512.694335938 687.381835938 l 1
 568.875 655.936523438 603.469726562 586.784179688 587.127929688 516 c 1
 440.81640625 480 l 1
 444.279296875 495 l 2
 447.51171875 509 450.051757812 520 447.822265625 532 c 0
 443.131835938 555 413.209960938 564 413.209960938 564 c 1
 420.366210938 595 l 1
 445.76171875 705 l 1
 455.919921875 749 l 1
330.919921875 749 m 1
 401.919921875 749 l 1
 391.76171875 705 l 1
 366.366210938 595 l 1
 359.209960938 564 l 1
 312.978515625 563 293.744140625 523 292.58984375 518 c 2
 214.787109375 181 l 2
 213.6328125 176 214.3984375 136 260.3984375 136 c 1
 248.854492188 86 l 1
 227.845703125 -5 l 1
 217.91796875 -48 l 1
 146.91796875 -48 l 1
 159.59765625 6.9208984375 l 1
 76.896484375 39.7373046875 62.5205078125 132.19921875 73.787109375 181 c 2
 151.58984375 518 l 2
 162.856445312 566.80078125 220.078125 659.923828125 317.989257812 692.987304688 c 1
 330.919921875 749 l 1
EndSplineSet
EndChar

StartChar: questiondown
Encoding: 191 191 179
Width: 460
VWidth: 0
Flags: W
HStem: -14 127.717<173.235 304.848> 560.38 150.62<302.779 384.437>
LayerCount: 2
Back
Fore
SplineSet
149.631835938 163 m 1
 48.0078125 78 l 1
 69.234375 40 106.767578125 -14 214.767578125 -14 c 0
 342.890625 -14 441.978515625 68.537109375 475.711914062 198 c 0
 528.359375 400.05078125 358.73046875 413 358.348632812 413 c 2
 383.744140625 523 l 1
 254.744140625 523 l 1
 203.953125 303 l 1
 320.3984375 300.684570312 368.618164062 288.556640625 347.25 196 c 0
 335.178710938 143.711914062 283.57421875 113.822265625 236.25390625 113.716796875 c 0
 193.186523438 113.620117188 164.430664062 134.560546875 149.631835938 163 c 1
268.297851562 635.690429688 m 0
 258.58203125 593.60546875 284.13671875 560.379882812 326.221679688 560.379882812 c 0
 368.306640625 560.379882812 409.202148438 593.60546875 418.91796875 635.690429688 c 0
 428.633789062 677.775390625 403.080078125 711 360.995117188 711 c 0
 318.91015625 711 278.013671875 677.775390625 268.297851562 635.690429688 c 0
EndSplineSet
EndChar

StartChar: cedilla
Encoding: 184 184 180
Width: 219
VWidth: 0
Flags: W
HStem: -35.6504 90.6006<38.3857 104.738>
VStem: 129.816 91.5<79.9714 122.65>
LayerCount: 2
Back
Fore
SplineSet
129.81640625 122.650390625 m 1
 117.2109375 68.0498046875 74.85546875 55.25 38.3857421875 54.9501953125 c 1
 17.46875 -35.650390625 l 1
 144.284179688 -35.150390625 203.700195312 46.349609375 221.31640625 122.650390625 c 1
 129.81640625 122.650390625 l 1
EndSplineSet
EndChar

StartChar: ae
Encoding: 230 230 181
Width: 666
VWidth: 0
Flags: W
HStem: 1 112<162.654 180.23 255.088 294.992 416.653 562.059> 207.5 116<458.686 600.144> 400.401 115.599<230.506 354.658 474.036 521.897 597.586 609.633>
LayerCount: 2
Back
Fore
SplineSet
574.43359375 402.395507812 m 2
 571.340820312 402.319335938 l 1
 597.5859375 516 l 1
 603.0859375 516 l 2
 672.926757812 516 743.426757812 450.33984375 726.716796875 377.958984375 c 2
 687.36328125 207.5 l 1
 431.905273438 207.5 l 1
 417.013671875 143 l 2
 412.006835938 121.3125 425.275390625 108.662109375 450.092773438 108.131835938 c 2
 508.608398438 107.993164062 l 2
 541.213867188 108.000976562 567.290039062 133.657226562 577.141601562 156.54296875 c 1
 667.731445312 120.118164062 l 1
 636.953125 54.900390625 555.3671875 0 483.958007812 0 c 2
 424.958007812 0 l 2
 379.881835938 0 347.360351562 9.447265625 327.92578125 30 c 1
 300.770507812 12 268.23046875 1 232.23046875 1 c 2
 229.23046875 1 l 1
 255.087890625 113 l 1
 258.087890625 113 l 2
 288.319335938 114 301.70703125 146 302.399414062 149 c 2
 320.407226562 227 l 1
 277.328125 205 196.865234375 190 181.249023438 183 c 0
 174.556640625 180 166.940429688 173 164.400390625 162 c 2
 161.399414062 149 l 2
 156.782226562 129 163.087890625 113 189.087890625 113 c 2
 206.087890625 113 l 1
 180.23046875 1 l 1
 83.23046875 1 38.236328125 53 51.3955078125 110 c 2
 67.556640625 180 l 2
 75.1748046875 213 86.7919921875 233 134.333007812 257 c 0
 183.104492188 282 339.799804688 311 349.03515625 351 c 2
 351.8046875 363 l 2
 357.345703125 387 359.962890625 407 324.962890625 407 c 2
 271.962890625 407 l 2
 248.962890625 407 228.0390625 390 219.49609375 353 c 2
 218.573242188 349 l 1
 122.807617188 389 l 1
 123.26953125 391 l 2
 139.661132812 462 229.8203125 519 297.8203125 519 c 2
 352.817382812 518.98828125 l 2
 392.9140625 518.505859375 421.473632812 503.498046875 440.7265625 482.826171875 c 1
 469.578125 502.282226562 504.354492188 516 543.0859375 516 c 2
 548.5859375 516 l 1
 521.897460938 400.401367188 l 1
 518.897460938 400.401367188 l 2
 493.111328125 400.401367188 475.54296875 384.306640625 470.049804688 372.724609375 c 2
 458.685546875 323.5 l 1
 600.143554688 323.5 l 1
 610.586914062 368.733398438 l 2
 616.71484375 395.27734375 594.712890625 402.891601562 574.43359375 402.395507812 c 2
EndSplineSet
EndChar

StartChar: mu
Encoding: 181 181 182
Width: 468
VWidth: 0
Flags: W
HStem: 0 21G<26 154.617> 0 21G<26 154.617> 179 121<225.268 233.325 303.261 348.326 476.907 483.787> 678 20G<182.529 311.146> 680 20G<437.146 561.607>
LayerCount: 2
Back
Fore
SplineSet
437.607421875 700 m 1x28
 561.607421875 700 l 1x28
 561.146484375 698 l 1
 475.724609375 328 l 2
 475.032226562 325 475.72265625 302 506.72265625 302 c 2
 511.72265625 302 l 1
 483.787109375 181 l 1
 478.787109375 181 l 2
 438.518554688 181 408.831054688 194.313476562 388.052734375 213.477539062 c 1
 357.994140625 193.305664062 321.416992188 179 280.325195312 179 c 2
 275.325195312 179 l 1
 303.260742188 300 l 1
 308.260742188 300 l 2
 339.260742188 300 350.801757812 324 351.262695312 326 c 2
 437.146484375 698 l 1x30
 437.607421875 700 l 1x28
187.146484375 698 m 1xb0
 311.146484375 698 l 1
 232.189453125 356 l 1
 225.262695312 326 l 2
 224.5703125 323 225.260742188 300 256.260742188 300 c 2
 261.260742188 300 l 1
 233.325195312 179 l 1
 228.325195312 179 l 2
 215.193359375 179 203.186523438 180.416015625 192.24609375 182.989257812 c 1
 150 0 l 1
 26 0 l 1
 100.108398438 321 l 1
 108.189453125 356 l 1
 187.146484375 698 l 1xb0
EndSplineSet
EndChar

StartChar: thorn
Encoding: 254 254 183
Width: 422
VWidth: 0
Flags: W
HStem: 0 118<230.242 304.296> 496 20G<310.511 400.628> 680 20G<186.99 316.607>
LayerCount: 2
Back
Fore
SplineSet
191.607421875 700 m 1
 316.607421875 700 l 1
 112.982421875 -182 l 1
 -12.017578125 -182 l 1
 191.607421875 700 l 1
232 0 m 2
 203 0 l 1
 230.2421875 118 l 1
 261.2421875 118 l 2
 298.473632812 119 306.936523438 134 309.013671875 143 c 2
 361.8828125 372 l 2
 364.883789062 385 349.885742188 398 319.885742188 398 c 2
 287.885742188 398 l 1
 315.127929688 516 l 1
 347.127929688 516 l 2
 454.127929688 516 495.50390625 431 482.575195312 375 c 2
 428.090820312 139 l 2
 415.854492188 86 345 0 232 0 c 2
EndSplineSet
EndChar

StartChar: Thorn
Encoding: 222 222 184
Width: 474
VWidth: 0
Flags: W
HStem: 0 21G<26 171.617> 0 21G<26 171.617> 208 139<301.111 378.703> 680 20G<182.99 328.607>
LayerCount: 2
Back
Fore
SplineSet
187.607421875 700 m 1xb0
 328.607421875 700 l 1
 167 0 l 1
 26 0 l 1
 187.607421875 700 l 1xb0
301.111328125 347 m 1
 334.111328125 347 l 2
 341.111328125 347 385.341796875 348 396.885742188 398 c 0
 408.66015625 449 367.12109375 451 358.12109375 451 c 2
 325.12109375 451 l 1
 357.211914062 590 l 1
 538.211914062 590 567.127929688 516 540.80859375 402 c 0
 507.794921875 259 426.020507812 208 269.020507812 208 c 1
 301.111328125 347 l 1
EndSplineSet
EndChar

StartChar: ring
Encoding: 262 730 187
Width: 249
VWidth: 0
Flags: W
HStem: 430.191 64.208<92.47 151.797> 557.599 64.208<97.392 156.719>
VStem: 28.7871 191.615
LayerCount: 2
Back
Fore
SplineSet
28.787109375 525.999023438 m 0
 41.1064453125 579.360351562 93.3525390625 621.806640625 146.713867188 621.806640625 c 0
 200.075195312 621.806640625 232.721679688 579.360351562 220.40234375 525.999023438 c 0
 208.083007812 472.637695312 155.836914062 430.19140625 102.475585938 430.19140625 c 0
 49.1142578125 430.19140625 16.4677734375 472.637695312 28.787109375 525.999023438 c 0
92.9951171875 525.999023438 m 0
 88.931640625 508.399414062 99.69921875 494.399414062 117.298828125 494.399414062 c 0
 134.8984375 494.399414062 152.130859375 508.399414062 156.194335938 525.999023438 c 0
 160.2578125 543.598632812 149.489257812 557.598632812 131.889648438 557.598632812 c 0
 114.290039062 557.598632812 97.05859375 543.598632812 92.9951171875 525.999023438 c 0
EndSplineSet
EndChar

StartChar: multiply
Encoding: 215 215 190
Width: 697
VWidth: 0
Flags: W
LayerCount: 2
Back
Fore
SplineSet
356.62109375 417.48828125 m 1
 159.877929688 257.154296875 l 1
 228.611328125 168.227539062 l 1
 425.025390625 328.29296875 l 1
 546.6328125 169.727539062 l 1
 656.374023438 258.723632812 l 1
 534.560546875 417.557617188 l 1
 730.2109375 577 l 1
 661.477539062 665.926757812 l 1
 466.15625 506.751953125 l 1
 343.125 667.176757812 l 1
 233.383789062 578.1796875 l 1
 356.62109375 417.48828125 l 1
EndSplineSet
EndChar

StartChar: Eth
Encoding: 208 208 191
Width: 501
VWidth: 0
Flags: W
HStem: 0 21G<83 228.617 282.617 308> 0 21G<83 228.617 282.617 308> 680 20G<239.99 385.607 434.99 511.107>
LayerCount: 2
Back
Fore
SplineSet
244.607421875 700 m 1xa0
 385.607421875 700 l 1
 320.96484375 420 l 1
 376.96484375 420 l 1
 347.413085938 292 l 1
 291.413085938 292 l 1
 224 0 l 1
 83 0 l 1
 150.413085938 292 l 1
 93.4130859375 292 l 1
 122.96484375 420 l 1
 179.96484375 420 l 1
 244.607421875 700 l 1xa0
278 0 m 1x60
 310.552734375 141 l 1
 316.552734375 141 367.399414062 149 379.481445312 197 c 2
 450.126953125 503 l 2
 451.28125 508 454.82421875 558 407.055664062 559 c 1
 439.607421875 700 l 1
 582.607421875 700 605.671875 566 591.126953125 503 c 2
 520.481445312 197 l 2
 486.54296875 50 338 0 278 0 c 1x60
EndSplineSet
EndChar

StartChar: divide
Encoding: 247 247 192
Width: 650
VWidth: 0
Flags: W
HStem: 40 151<306.834 388.434> 228 127<181.959 602.638> 393 151<388.331 469.931>
LayerCount: 2
Back
Fore
SplineSet
354.02734375 468 m 0
 363.724609375 510 404.57421875 544 446.57421875 544 c 0
 488.57421875 544 513.724609375 510 504.02734375 468 c 0
 494.331054688 426 453.712890625 393 411.712890625 393 c 0
 369.712890625 393 344.331054688 426 354.02734375 468 c 0
272.53125 115 m 0
 282.227539062 157 323.077148438 191 365.077148438 191 c 0
 407.077148438 191 432.227539062 157 422.53125 115 c 0
 412.834960938 73 372.215820312 40 330.215820312 40 c 0
 288.215820312 40 262.834960938 73 272.53125 115 c 0
631.958007812 355 m 1
 602.637695312 228 l 1
 152.638671875 228 l 1
 181.958984375 355 l 1
 631.958007812 355 l 1
EndSplineSet
EndChar

StartChar: AE
Encoding: 198 198 193
Width: 727
VWidth: 0
Flags: HW
HStem: 0 141<478 701> 277 141<478 607> 560 140<319.958 337 478 701>
VStem: 337 141<141 148 268 277 418 560>
LayerCount: 2
Back
Fore
SplineSet
733.552734375 141 m 1
 701 0 l 1
 337 0 l 1
 371.168945312 148 l 1
 306.168945312 148 l 1
 362.873046875 268 l 1
 398.873046875 268 l 1
 466.286132812 560 l 1
 449.244140625 560 l 1
 182 0 l 1
 26 0 l 1
 367.607421875 700 l 1
 862.607421875 700 l 5
 830.286132812 560 l 1
 612.286132812 560 l 1
 607.286132812 560 l 1
 574.502929688 418 l 1
 703.502929688 418 l 1
 670.950195312 277 l 1
 541.950195312 277 l 1
 510.552734375 141 l 1
 733.552734375 141 l 1
EndSplineSet
EndChar

StartChar: exclamdown
Encoding: 161 161 195
Width: 210
VWidth: 0
Flags: HW
HStem: 571 151<209.469 291.069>
LayerCount: 2
Back
Fore
SplineSet
161.283203125 534 m 1
 290.283203125 534 l 1
 167 0 l 1
 38 0 l 1
 161.283203125 534 l 1
175.372070312 647 m 0
 185.068359375 689 225.686523438 722 267.686523438 722 c 0
 309.686523438 722 335.068359375 689 325.372070312 647 c 0
 315.674804688 605 274.826171875 571 232.826171875 571 c 0
 190.826171875 571 165.674804688 605 175.372070312 647 c 0
EndSplineSet
EndChar

StartChar: germandbls
Encoding: 223 223 196
Width: 522
VWidth: 0
Flags: W
HStem: 0.164062 108.961<224.117 399.253> 586.2 118.8<302.899 404.042>
LayerCount: 2
Back
Fore
SplineSet
154.880859375 0 m 1
 25.880859375 0 l 1
 131.387695312 457 l 2
 149.471679688 531 178.934570312 705 388.642578125 705 c 0
 558.801757812 705 538.2578125 575.052734375 525.21484375 518 c 2
 499.3828125 405 l 1
 436.600585938 405.62109375 l 1
 396.924804688 400.543945312 389.439453125 362.553710938 389.356445312 361.885742188 c 0
 388.685546875 356.501953125 375.671875 325.19921875 460.91796875 298.534179688 c 0
 508.21484375 283.740234375 552.005859375 242.586914062 532.93359375 159.977539062 c 0
 509.224609375 57.2802734375 420.1328125 0.1640625 327.107421875 0.1640625 c 2
 198.961914062 0.1640625 l 1
 224.1171875 109.125 l 1
 352.088867188 109.31640625 l 2
 367.076171875 110.280273438 405.451171875 120.536132812 413.669921875 152.125976562 c 0
 425.631835938 198.10546875 378.997070312 201.497070312 328.34765625 227.7265625 c 0
 284.93359375 251.330078125 257.53125 286.939453125 276.8359375 370.557617188 c 0
 294.095703125 445.318359375 357.12890625 488.94921875 410.909179688 506.9296875 c 1
 413.640625 519 l 2
 425.555664062 571.643554688 394.725585938 586.435546875 360.215820312 586.200195312 c 0
 308.87890625 585.850585938 282.791015625 554.0390625 269.853515625 498 c 2
 154.880859375 0 l 1
EndSplineSet
EndChar

StartChar: eth
Encoding: 240 240 197
Width: 420
VWidth: 0
Flags: W
HStem: -1 118<182.136 191.77 260.012 302.041> 398 118<240.098 283.886 352.128 360.316> 647 67<355.185 374.482>
LayerCount: 2
Back
Fore
SplineSet
324.885742188 398 m 1
 352.127929688 516 l 1
 358.127929688 516 l 2
 369.856445312 516 380.612304688 514.768554688 390.451171875 512.518554688 c 1
 393.337890625 530.396484375 395.059570312 545.508789062 395.540039062 558.463867188 c 1
 334.899414062 541 l 1
 330.059570312 598 l 1
 383.897460938 613.754882812 l 1
 375.05078125 627.02734375 361.057617188 636.662109375 341.372070312 647 c 1
 356.83984375 714 l 1
 412.221679688 703.333984375 452.874023438 678.997070312 477.544921875 641.158203125 c 1
 531.680664062 657 l 1
 536.290039062 599 l 1
 499.599609375 588.43359375 l 1
 508.995117188 548.567382812 507.37109375 499.725585938 494.043945312 442 c 2
 478.806640625 376 l 1
 476.036132812 364 l 1
 424.552734375 141 l 2
 414.163085938 96 342.76953125 -1 238.76953125 -1 c 2
 232.76953125 -1 l 1
 260.01171875 117 l 1
 266.01171875 117 l 2
 297.2421875 118 307.552734375 141 310.091796875 152 c 2
 358.8046875 363 l 2
 362.729492188 380 360.885742188 398 330.885742188 398 c 2
 324.885742188 398 l 1
114.806640625 376 m 2
 125.1953125 421 198.127929688 516 305.127929688 516 c 2
 311.127929688 516 l 1
 283.885742188 398 l 1
 277.885742188 398 l 2
 244.885742188 398 234.114257812 373 231.8046875 363 c 2
 183.553710938 154 l 2
 179.166992188 135 183.01171875 117 213.01171875 117 c 2
 219.01171875 117 l 1
 191.76953125 -1 l 1
 185.76953125 -1 l 2
 77.76953125 -1 50.39453125 97 60.552734375 141 c 2
 114.806640625 376 l 2
EndSplineSet
EndChar

StartChar: currency
Encoding: 164 164 198
Width: 656
VWidth: 0
Flags: W
HStem: 133 114<332.555 340.705 408.024 452.702> 477 118<372.657 420.124 488.366 496.389>
LayerCount: 2
Back
Fore
SplineSet
461.124023438 477 m 1
 488.366210938 595 l 1
 494.366210938 595 l 2
 537.734375 595 567.818359375 578.158203125 587.340820312 555.297851562 c 1
 677.599609375 622 l 1
 730.668945312 540 l 1
 615.18359375 455.615234375 l 2
 615.13671875 455.409179688 615.091796875 455.204101562 615.044921875 455 c 2
 573.48828125 275 l 2
 573.461914062 274.8828125 573.43359375 274.765625 573.40625 274.6484375 c 2
 648.865234375 190 l 1
 559.165039062 109 l 1
 500.25390625 173.96484375 l 1
 470.043945312 150.442382812 431.806640625 133 387.705078125 133 c 2
 381.705078125 133 l 1
 408.024414062 247 l 1
 414.024414062 247 l 2
 445.254882812 248 455.795898438 272 456.2578125 274 c 2
 497.12109375 451 l 2
 497.814453125 454 497.124023438 477 467.124023438 477 c 2
 461.124023438 477 l 1
174.668945312 540 m 1
 265.599609375 622 l 1
 325.616210938 554.673828125 l 1
 356.59375 577.8515625 395.905273438 595 441.366210938 595 c 2
 447.366210938 595 l 1
 420.124023438 477 l 1
 414.124023438 477 l 2
 381.124023438 477 370.583007812 453 370.352539062 452 c 2
 329.719726562 276 l 2
 329.02734375 273 331.948242188 251 361.948242188 251 c 2
 367.948242188 251 l 1
 340.705078125 133 l 1
 334.705078125 133 l 2
 288.610351562 133 257.202148438 150.8515625 237.130859375 174.73828125 c 1
 147.165039062 109 l 1
 94.865234375 190 l 1
 209.408203125 274.6484375 l 2
 209.435546875 274.765625 209.461914062 274.8828125 209.48828125 275 c 2
 251.044921875 455 l 2
 251.091796875 455.204101562 251.142578125 455.409179688 251.190429688 455.615234375 c 2
 174.668945312 540 l 1
EndSplineSet
EndChar

StartChar: brokenbar
Encoding: 166 166 199
Width: 222
VWidth: 0
Flags: HW
LayerCount: 2
Back
Fore
SplineSet
101.021484375 221 m 1
 19.0634765625 -134 l 1
 141.0625 -134 l 1
 223.020507812 221 l 1
 101.021484375 221 l 1
224.07421875 754 m 1
 142.116210938 399 l 1
 264.115234375 399 l 1
 346.073242188 754 l 1
 224.07421875 754 l 1
EndSplineSet
EndChar

StartChar: section
Encoding: 167 167 200
Width: 547
VWidth: 0
Flags: W
HStem: -136 132<250.602 321.319> 627 132<369.511 440.229>
VStem: 213.574 138.406<527.26 607.754> 338.851 132.154<15.2455 96.4972>
LayerCount: 2
Back
Fore
SplineSet
440.228515625 759 m 2xe0
 372.228515625 759 251.916015625 710 219.826171875 571 c 0
 213.389648438 543.12109375 211.579101562 519.400390625 213.57421875 498.9609375 c 1
 161.9765625 464.865234375 121.362304688 413.060546875 107.03515625 351 c 0
 83.486328125 249 139.635742188 202 192.32421875 166 c 0
 215.892578125 149.6796875 247.1953125 138.020507812 274.947265625 125.385742188 c 1
 308.811523438 272.068359375 l 1
 270.499023438 289.913085938 239.390625 313.559570312 249.419921875 357 c 0
 254.65234375 379.666015625 264.59765625 392.638671875 276.19921875 400.297851562 c 1
 283.717773438 395.247070312 291.724609375 390.517578125 300.115234375 386 c 0
 309.405273438 380.9453125 320.274414062 376.286132812 331.799804688 371.640625 c 1
 367.588867188 526.66015625 l 1
 354.040039062 539.409179688 347.1328125 555.00390625 351.98046875 576 c 0
 358.90625 606 384.75390625 627 417.75390625 627 c 2
 521.75390625 627 l 1
 552.228515625 759 l 1
 440.228515625 759 l 2xe0
414.631835938 222.702148438 m 1
 407.11328125 227.752929688 399.106445312 232.482421875 390.715820312 237 c 0
 381.1796875 242.1875 369.98046875 246.959960938 358.116210938 251.727539062 c 1
 322.41796875 97.103515625 l 1
 336.508789062 84.21484375 343.795898438 68.41796875 338.850585938 47 c 0
 331.924804688 17 306.076171875 -4 273.076171875 -4 c 2
 169.076171875 -4 l 1
 138.6015625 -136 l 1
 250.6015625 -136 l 2
 318.6015625 -136 438.9140625 -87 471.004882812 52 c 0xd0
 477.44140625 79.87890625 479.251953125 103.599609375 477.256835938 124.0390625 c 1
 528.853515625 158.134765625 569.46875 209.939453125 583.795898438 272 c 0
 607.344726562 374 551.1953125 421 498.506835938 457 c 0
 474.681640625 473.498046875 442.953125 485.232421875 414.978515625 498.02734375 c 1
 381.115234375 351.350585938 l 1
 419.840820312 333.45703125 451.518554688 309.78125 441.411132812 266 c 0
 436.177734375 243.333984375 426.232421875 230.361328125 414.631835938 222.702148438 c 1
EndSplineSet
EndChar

StartChar: plusminus
Encoding: 177 177 201
Width: 575
VWidth: 0
Flags: W
HStem: 40 127<138.048 484.727> 391 127<219.59 313.27 469.59 565.27>
LayerCount: 2
Back
Fore
SplineSet
514.046875 167 m 1
 484.7265625 40 l 1
 108.727539062 40 l 1
 138.047851562 167 l 1
 514.046875 167 l 1
594.58984375 518 m 1
 565.26953125 391 l 1
 440.26953125 391 l 1
 407.254882812 248 l 1
 280.254882812 248 l 1
 313.26953125 391 l 1
 190.26953125 391 l 1
 219.58984375 518 l 1
 342.58984375 518 l 1
 375.142578125 659 l 1
 502.142578125 659 l 1
 469.58984375 518 l 1
 594.58984375 518 l 1
EndSplineSet
EndChar

StartChar: degree
Encoding: 176 176 204
Width: 282
VWidth: 0
Flags: W
HStem: 468.03 77.0488<237.392 305.573> 620.919 77.0488<245.681 313.861>
VStem: 160.657 229.938
LayerCount: 2
Back
Fore
SplineSet
160.657226562 582.999023438 m 0
 175.440429688 647.032226562 238.135742188 697.967773438 302.168945312 697.967773438 c 0
 366.203125 697.967773438 405.37890625 647.032226562 390.595703125 582.999023438 c 0
 375.8125 518.965820312 313.118164062 468.030273438 249.083984375 468.030273438 c 0
 185.05078125 468.030273438 145.874023438 518.965820312 160.657226562 582.999023438 c 0
237.70703125 582.999023438 m 0
 232.831054688 561.879882812 245.752929688 545.079101562 266.872070312 545.079101562 c 0
 287.9921875 545.079101562 308.669921875 561.879882812 313.545898438 582.999023438 c 0
 318.421875 604.118164062 305.500976562 620.918945312 284.380859375 620.918945312 c 0
 263.26171875 620.918945312 242.583007812 604.118164062 237.70703125 582.999023438 c 0
EndSplineSet
EndChar

StartChar: uni00B2
Encoding: 178 178 205
Width: 245
VWidth: 0
Flags: HMW
LayerCount: 2
Back
Fore
SplineSet
249.692382812 638.291992188 m 2
 245.32421875 636.6640625 230.014648438 629.655273438 225.060546875 608.1953125 c 2
 224.03515625 603.752929688 l 1
 168.395507812 616.1484375 l 1
 169.48828125 619.379882812 l 2
 182.204101562 657.00390625 218.630859375 694.4609375 262.916992188 699.896484375 c 2
 267.0859375 700.408203125 l 1
 254.407226562 645.4921875 l 1
 252.745117188 638.291992188 l 1
 249.692382812 638.291992188 l 2
319.6875 451.091796875 m 1
 305.359375 389.029296875 l 1
 123.630859375 389.029296875 l 1
 137.958984375 451.091796875 l 1
 319.6875 451.091796875 l 1
269.435546875 638.8515625 m 1
 283.634765625 700.35546875 l 1
 290.2578125 700.35546875 l 2
 359.455078125 700.35546875 367.094726562 643.395507812 359.618164062 609.083984375 c 0
 348.286132812 560.000976562 322.088867188 546.158203125 291.301757812 527.4921875 c 0
 255.647460938 505.895507812 236.911132812 493.344726562 217.450195312 471.037109375 c 2
 216.004882812 469.379882812 l 1
 142.612304688 469.379882812 l 1
 146.333007812 474.55859375 l 2
 185.174804688 528.603515625 234.169921875 552.71484375 248.875 562.9921875 c 0
 272.659179688 580.06640625 293.088867188 583.951171875 299.084960938 608.224609375 c 0
 303.939453125 629.252929688 295.221679688 637.907226562 272.875976562 638.7265625 c 2
 269.435546875 638.8515625 l 1
EndSplineSet
EndChar

StartChar: uni00B3
Encoding: 179 179 206
Width: 247
VWidth: 0
Flags: W
HStem: 392.485 59.9043<230.085 264.602> 516.038 60.7686<230.326 270.429> 681.303 19.918G<248.117 269.274 282.099 290.379>
VStem: 128.308 232.643
LayerCount: 2
Back
Fore
SplineSet
187.426757812 467.203125 m 2
 190.99609375 459.012695312 197.37890625 454.475585938 208.7734375 453.677734375 c 2
 212.071289062 453.446289062 l 1
 197.897460938 392.0546875 l 1
 194.297851562 392.0546875 l 2
 159.547851562 392.0546875 136.657226562 406.181640625 128.307617188 436.359375 c 2
 127.477539062 439.36328125 l 1
 186.1875 470.047851562 l 1
 187.426757812 467.203125 l 2
233.713867188 452.389648438 m 2
 249.896484375 452.389648438 265.077148438 467.231445312 268.698242188 482.91796875 c 0
 274.15625 506.560546875 270.373046875 516.038085938 219.896484375 516.038085938 c 2
 216.296875 516.038085938 l 1
 230.326171875 576.806640625 l 1
 233.92578125 576.806640625 l 2
 285.048828125 576.806640625 292.916992188 587.821289062 298.419921875 611.654296875 c 0
 303.26953125 632.6640625 289.471679688 640.454101562 277.997070312 640.454101562 c 2
 272.668945312 640.454101562 l 1
 286.716796875 701.302734375 l 1
 290.37890625 701.219726562 l 2
 350.193359375 699.875976562 368.731445312 649.249023438 360.950195312 615.541992188 c 0
 352.081054688 577.125 336.221679688 556.743164062 321.077148438 546.983398438 c 1
 330.993164062 536.586914062 340.096679688 515.866210938 332.291015625 482.0546875 c 0
 319.342773438 425.967773438 257.368164062 392.485351562 221.181640625 392.485351562 c 2
 216.747070312 392.485351562 l 1
 230.084960938 452.389648438 l 1
 233.713867188 452.389648438 l 2
221.551757812 623.227539062 m 1
 176.848632812 654.0234375 l 1
 179.381835938 657.114257812 l 2
 199.971679688 682.21875 230.559570312 701.220703125 265.674804688 701.220703125 c 2
 269.274414062 701.220703125 l 1
 255.100585938 639.829101562 l 1
 251.696289062 639.59765625 l 2
 239.93359375 638.80078125 231.455078125 634.262695312 224.104492188 626.073242188 c 2
 221.551757812 623.227539062 l 1
EndSplineSet
EndChar

StartChar: uni00B9
Encoding: 185 185 207
Width: 186
VWidth: 0
Flags: W
HStem: 391.067 309.166
VStem: 183.118 138.936
LayerCount: 2
Back
Fore
SplineSet
233.6171875 609.8046875 m 1
 194.80078125 583.884765625 l 1
 215.353515625 672.91015625 l 1
 256.861328125 700.233398438 l 1
 322.053710938 700.233398438 l 1
 250.677734375 391.067382812 l 1
 183.118164062 391.067382812 l 1
 233.6171875 609.8046875 l 1
EndSplineSet
EndChar

StartChar: guillemotleft
Encoding: 171 171 208
Width: 475
VWidth: 0
Flags: W
LayerCount: 2
Back
Fore
SplineSet
559.166015625 477.180664062 m 1
 311.838867188 320.700195312 l 1
 297.654296875 259.259765625 l 1
 472.506835938 101.819335938 l 1
 500.654296875 223.740234375 l 1
 427.110351562 291.900390625 l 1
 530.353515625 352.380859375 l 1
 559.166015625 477.180664062 l 1
347.965820312 477.180664062 m 1
 100.638671875 320.700195312 l 1
 86.4541015625 259.259765625 l 1
 261.306640625 101.819335938 l 1
 289.454101562 223.740234375 l 1
 215.91015625 291.900390625 l 1
 319.153320312 352.380859375 l 1
 347.965820312 477.180664062 l 1
EndSplineSet
EndChar

StartChar: onequarter
Encoding: 188 188 209
Width: 560
VWidth: 0
Flags: W
HStem: 681.75 19.75G<245.959 343.353 602.553 695.954>
LayerCount: 2
Back
Fore
SplineSet
251.205078125 597.154296875 m 1
 206.278320312 567.154296875 l 1
 230.365234375 671.484375 l 1
 276.338867188 701.75 l 1
 343.352539062 701.75 l 1
 261.971679688 349.25 l 1
 193.971679688 349.25 l 1
 251.205078125 597.154296875 l 1
519.892578125 137.75 m 1
 504.540039062 71.25 l 1
 477.540039062 71.25 l 1
 460.801757812 -1.25 l 1
 392.801757812 -1.25 l 1
 474.4140625 352.25 l 1
 542.4140625 352.25 l 1
 492.892578125 137.75 l 1
 519.892578125 137.75 l 1
399.392578125 137.75 m 1
 384.040039062 71.25 l 1
 286.040039062 71.25 l 1
 301.140625 136.655273438 l 1
 437.959960938 304.802734375 l 1
 408.072265625 175.344726562 l 1
 377.501953125 137.75 l 1
 399.392578125 137.75 l 1
25.3125 -1.5 m 1
 619.456054688 701.5 l 1
 695.954101562 701.5 l 1
 108.83984375 -1.5 l 1
 25.3125 -1.5 l 1
EndSplineSet
EndChar

StartChar: onehalf
Encoding: 189 189 210
Width: 581
VWidth: 0
Flags: W
HStem: -1 66.5<361.122 550.77> 288.001 65.999<529.728 548.572> 681.5 20G<246.118 343.512 602.712 696.113>
LayerCount: 2
Back
Fore
SplineSet
488.560546875 287.5 m 2
 485.875976562 286.694335938 463.765625 278.365234375 457.216796875 250 c 2
 456.790039062 248.1484375 l 1
 397.693359375 261.313476562 l 1
 398.1484375 262.66015625 l 2
 412.533203125 305.216796875 453.682617188 347.383789062 503.420898438 353.48828125 c 2
 505.158203125 353.701171875 l 1
 490.567382812 290.5 l 1
 489.875 287.5 l 1
 488.560546875 287.5 l 2
25.4716796875 -1.5 m 1
 619.615234375 701.5 l 1
 696.11328125 701.5 l 1
 108.999023438 -1.5 l 1
 25.4716796875 -1.5 l 1
566.122070312 65.5 m 1
 550.76953125 -1 l 1
 345.76953125 -1 l 1
 361.122070312 65.5 l 1
 566.122070312 65.5 l 1
514.501953125 288.053710938 m 1
 529.727539062 354 l 1
 534.727539062 354 l 2
 612.83984375 354 621.43359375 289.946289062 612.950195312 251.009765625 c 2
 612.6015625 249.5 l 2
 600.44140625 196.829101562 570.93359375 180.244140625 535.518554688 158.7734375 c 0
 494.248046875 133.7734375 472.067382812 118.947265625 449.162109375 92.6904296875 c 2
 448.559570312 92 l 1
 369.33984375 92 l 1
 370.889648438 94.1572265625 l 2
 415.360351562 156.036132812 471.125 183.362304688 488.698242188 195.64453125 c 0
 515.102539062 214.598632812 540.8203125 220.055664062 548.219726562 250.01171875 c 2
 548.448242188 251 l 2
 554.016601562 275.122070312 542.693359375 287.01953125 515.935546875 288.000976562 c 2
 514.501953125 288.053710938 l 1
251.364257812 597.154296875 m 1
 206.4375 567.154296875 l 1
 230.524414062 671.484375 l 1
 276.498046875 701.75 l 1
 343.51171875 701.75 l 1
 262.130859375 349.25 l 1
 194.130859375 349.25 l 1
 251.364257812 597.154296875 l 1
EndSplineSet
EndChar

StartChar: threequarters
Encoding: 190 190 211
Width: 584
VWidth: 0
Flags: W
HStem: 348.5 64<236.062 273.222> 491.5 65<236.319 282.553> 680.534 19.9658G<254.772 276.064 296.955 303.098 626.553 719.954>
LayerCount: 2
Back
Fore
SplineSet
182.0546875 430.83203125 m 2
 186.469726562 420.701171875 194.651367188 414.96875 208.522460938 413.99609375 c 2
 209.897460938 413.900390625 l 1
 194.682617188 348 l 1
 193.182617188 348 l 2
 153.744140625 348 128.255859375 363.806640625 118.84765625 397.821289062 c 2
 118.500976562 399.072265625 l 1
 181.538085938 432.017578125 l 1
 182.0546875 430.83203125 l 2
237.57421875 412.5 m 2
 258.076171875 412.5 276.8828125 431.1640625 281.346679688 450.5 c 0
 288.053710938 479.55078125 281.603515625 491.5 222.8125 491.5 c 2
 221.3125 491.5 l 1
 236.319335938 556.5 l 1
 237.819335938 556.5 l 2
 297.520507812 556.5 309.021484375 570.372070312 315.74609375 599.5 c 0
 321.756835938 625.534179688 304.438476562 635.5 290.057617188 635.5 c 2
 286.557617188 635.5 l 1
 301.572265625 700.534179688 l 1
 303.09765625 700.5 l 2
 370.678710938 698.978515625 391.494140625 641.724609375 382.78515625 604 c 0
 371.982421875 557.206054688 352.282226562 534.169921875 334.814453125 524.846679688 c 1
 346.861328125 513.861328125 359.059570312 490.403320312 349.616210938 449.5 c 0
 335.059570312 386.450195312 264.9765625 348.5 224.298828125 348.5 c 2
 221.811523438 348.5 l 1
 236.061523438 412.5 l 1
 237.57421875 412.5 l 2
224.125 616.482421875 m 1
 176.232421875 649.473632812 l 1
 177.2890625 650.76171875 l 2
 200.563476562 679.140625 234.98046875 700.5 274.564453125 700.5 c 2
 276.064453125 700.5 l 1
 260.849609375 634.599609375 l 1
 259.430664062 634.50390625 l 2
 245.106445312 633.53125 234.275390625 627.791992188 225.188476562 617.66796875 c 2
 224.125 616.482421875 l 1
543.892578125 137.75 m 1
 528.540039062 71.25 l 1
 501.540039062 71.25 l 1
 484.801757812 -1.25 l 1
 416.801757812 -1.25 l 1
 498.4140625 352.25 l 1
 566.4140625 352.25 l 1
 516.892578125 137.75 l 1
 543.892578125 137.75 l 1
423.392578125 137.75 m 1
 408.040039062 71.25 l 1
 310.040039062 71.25 l 1
 325.140625 136.655273438 l 1
 461.959960938 304.802734375 l 1
 432.072265625 175.344726562 l 1
 401.501953125 137.75 l 1
 423.392578125 137.75 l 1
49.3125 -1.5 m 1
 643.456054688 701.5 l 1
 719.954101562 701.5 l 1
 132.840820312 -1.5 l 1
 49.3125 -1.5 l 1
EndSplineSet
EndChar

StartChar: logicalnot
Encoding: 172 172 212
Width: 502
VWidth: 0
Flags: W
HStem: 327 115<128.044 433.494>
LayerCount: 2
Back
Fore
SplineSet
524.020507812 208 m 1
 406.020507812 208 l 1
 433.494140625 327 l 1
 101.494140625 327 l 1
 128.043945312 442 l 1
 578.043945312 442 l 1
 524.020507812 208 l 1
EndSplineSet
EndChar

StartChar: ordmasculine
Encoding: 186 186 213
Width: 230
VWidth: 0
Flags: W
HStem: 361 71<125.735 287.344> 469.51 53.1602<211.491 215.975 243.288 264.156> 645.07 54.9199<234.947 256.506 284.226 287.736>
VStem: 109.344 233.273
LayerCount: 2
Back
Fore
SplineSet
125.735351562 432 m 1
 303.735351562 432 l 1
 287.34375 361 l 1
 109.34375 361 l 1
 125.735351562 432 l 1
271.545898438 645.0703125 m 1
 284.225585938 699.990234375 l 1
 288.365234375 699.990234375 l 2
 334.705078125 699.990234375 347.354492188 657.408203125 342.6171875 636.889648438 c 2
 318.74609375 533.490234375 l 2
 314.016601562 513.002929688 281.958984375 469.509765625 235.154296875 469.509765625 c 2
 231.014648438 469.509765625 l 1
 243.288085938 522.669921875 l 1
 247.403320312 522.669921875 l 2
 259.8515625 523.069335938 263.918945312 532.364257812 264.170898438 533.081054688 c 2
 287.728515625 635.12109375 l 2
 287.901367188 636.177734375 287.64453125 645.0703125 275.685546875 645.0703125 c 2
 271.545898438 645.0703125 l 1
179.45703125 636.889648438 m 2
 184.203125 657.444335938 216.985351562 699.990234375 265.045898438 699.990234375 c 2
 269.185546875 699.990234375 l 1
 256.505859375 645.0703125 l 1
 252.366210938 645.0703125 l 2
 239.361328125 645.0703125 235.22265625 636.1640625 234.930664062 635.4765625 c 2
 211.494140625 533.958984375 l 2
 211.39453125 532.682617188 212.708984375 524.4296875 224.514648438 524.4296875 c 2
 228.654296875 524.4296875 l 1
 215.974609375 469.509765625 l 1
 211.834960938 469.509765625 l 2
 163.302734375 469.509765625 150.950195312 513.409179688 155.5859375 533.490234375 c 2
 179.45703125 636.889648438 l 2
EndSplineSet
EndChar

StartChar: ordfeminine
Encoding: 170 170 214
Width: 227
VWidth: 0
Flags: W
HStem: 362.5 68<125.389 284.689> 470.54 52.2803<201.105 206.913 237.542 259.466> 649.18 52.2803<224.479 248.595>
VStem: 109.689 225.829
LayerCount: 2
Back
Fore
SplineSet
125.388671875 430.5 m 1
 300.388671875 430.5 l 1
 284.689453125 362.5 l 1
 109.689453125 362.5 l 1
 125.388671875 430.5 l 1
245.840820312 649.1796875 m 2
 236.329101562 648.369140625 228.16015625 642.620117188 224.536132812 626.919921875 c 2
 223.626953125 622.983398438 l 1
 178.75390625 641.725585938 l 1
 179.1953125 643.639648438 l 2
 186.661132812 675.977539062 227.286132812 701.459960938 257.844726562 701.459960938 c 2
 260.6640625 701.459960938 l 1
 248.594726562 649.1796875 l 1
 245.840820312 649.1796875 l 2
278.344726562 701.459960938 m 1
 281.1640625 701.459960938 l 2
 327.5 701.459960938 340.15625 658.88671875 335.518554688 638.799804688 c 2
 311.443359375 534.51953125 l 2
 310.913085938 532.219726562 309.790039062 523.259765625 317.463867188 523.259765625 c 2
 320.284179688 523.259765625 l 1
 308.11328125 470.540039062 l 1
 305.29296875 470.540039062 l 2
 289.134765625 470.540039062 277.24609375 475.971679688 270.266601562 482.881835938 c 1
 257.931640625 475.038085938 243.942382812 470.540039062 228.29296875 470.540039062 c 2
 225.47265625 470.540039062 l 1
 237.541992188 522.8203125 l 1
 240.336914062 522.8203125 l 2
 252.3125 523.215820312 257.73046875 536.17578125 258.014648438 537.165039062 c 2
 265.3515625 568.9453125 l 1
 244.416015625 559.368164062 212.919921875 553.625976562 206.568359375 550.778320312 c 0
 204.141601562 549.690429688 201.274414062 547.129882812 200.293945312 542.879882812 c 2
 198.973632812 537.16015625 l 2
 197.077148438 528.947265625 199.443359375 522.8203125 210.001953125 522.8203125 c 2
 218.982421875 522.8203125 l 1
 206.913085938 470.540039062 l 1
 205.413085938 470.540039062 l 2
 162.278320312 470.540039062 141.516601562 493.776367188 147.571289062 520 c 2
 154.681640625 550.799804688 l 2
 158.1171875 565.682617188 163.827148438 575.233398438 185.109375 585.9765625 c 0
 207.916992188 597.66796875 274.888671875 610.2578125 278.533203125 626.040039062 c 2
 279.751953125 631.3203125 l 2
 282.155273438 641.73046875 283.127929688 647.947265625 268.967773438 649.185546875 c 2
 268.793945312 649.200195312 l 1
 266.473632812 650.0390625 l 1
 278.344726562 701.459960938 l 1
EndSplineSet
EndChar

StartChar: paragraph
Encoding: 182 182 215
Width: 444
VWidth: 0
Flags: HMW
LayerCount: 2
Back
Fore
SplineSet
440.76171875 704.999023438 m 2
 357.76171875 705 l 2
 255.76171875 705 168.361328125 616.63671875 145.358398438 517 c 0
 118.95703125 402.640625 166.956054688 329 271.063476562 329.466796875 c 1
 193.845703125 -5 l 1
 276.845703125 -5 l 1
 352.5703125 323.000976562 l 2
 352.903320312 323.000976562 353.236328125 323 353.5703125 323 c 2
 385.661132812 462 l 1
 384.661132812 462 l 1
 408.671875 566 l 1
 409.671875 566 l 1
 441.76171875 705 l 2
 441.427734375 705 441.094726562 704.999023438 440.76171875 704.999023438 c 2
580.76171875 705 m 1
 497.76171875 705 l 1
 333.845703125 -5 l 1
 416.845703125 -5 l 1
 580.76171875 705 l 1
EndSplineSet
EndChar

StartChar: circumflex
Encoding: 263 710 216
Width: 270
VWidth: 0
Flags: W
HStem: 514.05 151.9<162.2 202.27>
VStem: 25.5996 218.4
LayerCount: 2
Back
Fore
SplineSet
25.599609375 514.049804688 m 1
 136.46875 665.950195312 l 1
 202.26953125 665.950195312 l 1
 244 514.049804688 l 1
 162.200195312 514.049804688 l 1
 147.505859375 571.25 l 1
 107.399414062 514.049804688 l 1
 25.599609375 514.049804688 l 1
EndSplineSet
EndChar

StartChar: caron
Encoding: 264 711 217
Width: 270
VWidth: 0
Flags: W
HStem: 513.95 151.9
LayerCount: 2
Back
Fore
SplineSet
25.599609375 665.850585938 m 1
 66.330078125 513.950195312 l 1
 132.130859375 513.950195312 l 1
 244 665.850585938 l 1
 162.200195312 665.850585938 l 1
 121.09375 608.650390625 l 1
 107.399414062 665.850585938 l 1
 25.599609375 665.850585938 l 1
EndSplineSet
EndChar

StartChar: breve
Encoding: 265 728 218
Width: 246
VWidth: 0
Flags: W
HStem: 430.191 64.208<92.0676 151.395>
VStem: 28.3848 64.208<495.097 525.999>
LayerCount: 2
Back
Fore
SplineSet
220 525.999023438 m 1
 207.680664062 472.637695312 155.434570312 430.19140625 102.073242188 430.19140625 c 0
 48.7119140625 430.19140625 16.0654296875 472.637695312 28.384765625 525.999023438 c 1
 92.5927734375 525.999023438 l 1
 88.529296875 508.399414062 99.296875 494.399414062 116.896484375 494.399414062 c 0
 134.49609375 494.399414062 151.728515625 508.399414062 155.791992188 525.999023438 c 1
 220 525.999023438 l 1
EndSplineSet
EndChar

StartChar: dotaccent
Encoding: 266 729 219
Width: 206
VWidth: 0
Flags: W
HStem: 603 151<62.2283 143.828>
VStem: 27.9248 150<635.812 720.504>
LayerCount: 2
Back
Fore
SplineSet
27.9248046875 678 m 0
 37.62109375 720 78.470703125 754 120.470703125 754 c 0
 162.470703125 754 187.62109375 720 177.924804688 678 c 0
 168.228515625 636 127.610351562 603 85.6103515625 603 c 0
 43.6103515625 603 18.228515625 636 27.9248046875 678 c 0
EndSplineSet
EndChar

StartChar: dotlessi
Encoding: 267 305 220
Width: 174
VWidth: 0
Flags: HMW
LayerCount: 2
Back
Fore
SplineSet
148 0 m 1
 26 0 l 1
 145.127929688 516 l 1
 267.127929688 516 l 1
 148 0 l 1
EndSplineSet
EndChar

StartChar: Lslash
Encoding: 268 321 221
Width: 530
VWidth: 0
Flags: W
HStem: 0 139<301.623 504.532> 680 20G<285.522 431.14>
LayerCount: 2
Back
Fore
SplineSet
475.747070312 553.333984375 m 1
 525.731445312 460 l 1
 348.737304688 343.07421875 l 1
 301.623046875 139 l 1
 536.623046875 139 l 1
 504.532226562 0 l 1
 128.532226562 0 l 1
 182.362304688 233.165039062 l 1
 145.783203125 209 l 1
 95.798828125 302.333984375 l 1
 216.783203125 382.2578125 l 1
 290.139648438 700 l 1
 431.139648438 700 l 1
 383.158203125 492.16796875 l 1
 475.747070312 553.333984375 l 1
EndSplineSet
EndChar

StartChar: lslash
Encoding: 269 322 222
Width: 424
VWidth: 0
Flags: W
HStem: 0 21G<147.001 282.618> 0 21G<147.001 282.618> 678 20G<303.53 439.147>
LayerCount: 2
Back
Fore
SplineSet
450.290039062 536.333984375 m 1xa0
 500.274414062 443 l 1
 358.666015625 349.400390625 l 1
 278.000976562 0 l 1
 147.000976562 0 l 1
 204.076171875 247.220703125 l 1
 146.250976562 209 l 1
 96.2666015625 302.333984375 l 1
 238.505859375 396.349609375 l 1
 308.147460938 698 l 1
 439.147460938 698 l 1
 393.095703125 498.530273438 l 1
 450.290039062 536.333984375 l 1xa0
EndSplineSet
EndChar

StartChar: OE
Encoding: 270 338 223
Width: 724
VWidth: 0
Flags: HMW
HStem: -5 142<181.632 222 277 317.46> 564 141<182.089 223 277 317.65>
VStem: 26 141<156.794 549.004> 333 141<156.794 548.717>
LayerCount: 2
Back
Fore
SplineSet
730.552734375 141 m 1
 698 0 l 1
 277 0 l 1
 309.783203125 142 l 1
 366.783203125 142 l 1
 463.055664062 559 l 1
 406.055664062 559 l 1
 438.607421875 700 l 1
 859.607421875 700 l 1
 827.286132812 560 l 1
 604.286132812 560 l 1
 571.502929688 418 l 1
 700.502929688 418 l 1
 667.950195312 277 l 1
 538.950195312 277 l 1
 507.552734375 141 l 1
 730.552734375 141 l 1
222 0 m 1
 162 0 38.9287109375 56 72.173828125 200 c 2
 145.8203125 519 l 2
 159.672851562 579 252.607421875 700 384.607421875 700 c 1
 352.055664062 559 l 1
 305.82421875 558 284.28125 508 283.126953125 503 c 2
 213.173828125 200 l 2
 202.553710938 154 249.783203125 142 254.783203125 142 c 1
 222 0 l 1
EndSplineSet
EndChar

StartChar: oe
Encoding: 271 339 224
Width: 671
VWidth: 0
Flags: W
HStem: -1 114<179.4 189.77 257.088 302.919 428.108 566.055> 207.5 116<470.144 605.144> 398 118<233.874 281.886 350.128 357.987 484.187 526.897 602.586 614.633>
LayerCount: 2
Back
Fore
SplineSet
579.43359375 402.395507812 m 2
 576.340820312 402.319335938 l 1
 602.5859375 516 l 1
 608.0859375 516 l 2
 677.926757812 516 748.426757812 450.33984375 731.716796875 377.958984375 c 2
 692.36328125 207.5 l 1
 443.36328125 207.5 l 1
 427.96484375 140.802734375 l 2
 427.259765625 137.75 427.5703125 108.975585938 455.092773438 108.131835938 c 2
 513.608398438 107.993164062 l 2
 543.93359375 108 571.717773438 132.319335938 580.661132812 153.103515625 c 2
 582.141601562 156.54296875 l 1
 672.731445312 120.118164062 l 1
 671.505859375 117.521484375 l 2
 641.421875 53.7734375 558.526367188 0 488.958007812 0 c 2
 429.958007812 0 l 2
 390.3203125 0 361.3984375 14.11328125 341.361328125 34.048828125 c 1
 312.499023438 13.576171875 277.083984375 -1 236.76953125 -1 c 2
 230.76953125 -1 l 1
 257.087890625 113 l 1
 263.087890625 113 l 2
 294.319335938 114 304.859375 138 305.321289062 140 c 2
 358.8828125 372 l 2
 359.575195312 375 358.885742188 398 328.885742188 398 c 2
 322.885742188 398 l 1
 350.127929688 516 l 1
 356.127929688 516 l 2
 395.973632812 516 424.60546875 501.783203125 444.134765625 481.743164062 c 1
 473.296875 501.771484375 508.639648438 516 548.0859375 516 c 2
 553.5859375 516 l 1
 526.897460938 400.401367188 l 1
 523.897460938 400.401367188 l 2
 494.799804688 400.401367188 483.166992188 379.908203125 480.540039062 368.529296875 c 2
 470.143554688 323.5 l 1
 605.143554688 323.5 l 1
 615.586914062 368.733398438 l 2
 621.71484375 395.27734375 599.712890625 402.891601562 579.43359375 402.395507812 c 2
112.806640625 376 m 2
 123.1953125 421 196.127929688 516 303.127929688 516 c 2
 309.127929688 516 l 1
 281.885742188 398 l 1
 275.885742188 398 l 2
 242.885742188 398 232.344726562 374 232.114257812 373 c 2
 178.783203125 142 l 2
 178.090820312 139 180.087890625 113 210.087890625 113 c 2
 216.087890625 113 l 1
 189.76953125 -1 l 1
 183.76953125 -1 l 2
 75.76953125 -1 48.39453125 97 58.552734375 141 c 2
 112.806640625 376 l 2
EndSplineSet
EndChar

StartChar: florin
Encoding: 277 402 230
Width: 382
VWidth: 0
Flags: W
HStem: -168 105<38.4551 127.729> 400 116<197.128 233.348 381.897 421.348> 579 117<392.618 462.673>
LayerCount: 2
Back
Fore
SplineSet
268.439453125 552 m 2
 278.828125 597 352.453125 695 455.684570312 696 c 2
 516.684570312 696 l 1
 462.672851562 579 l 1
 429.672851562 579 l 2
 401.44140625 578 391.131835938 555 390.439453125 552 c 2
 381.897460938 515 l 1
 448.127929688 516 l 1
 421.34765625 400 l 1
 355.34765625 400 l 1
 264.616210938 7 l 1
 263 -0 l 1
 256.07421875 -30 l 2
 241.759765625 -92 182.213867188 -168 70.2138671875 -168 c 2
 -12.7861328125 -168 l 1
 38.455078125 -63 l 1
 93.455078125 -63 l 2
 121.686523438 -62 131.99609375 -39 132.688476562 -36 c 2
 141 0 l 1
 142.616210938 7 l 1
 233.34765625 400 l 1
 170.34765625 400 l 1
 197.127929688 516 l 1
 260.127929688 516 l 1
 268.439453125 552 l 2
EndSplineSet
EndChar

StartChar: hungarumlaut
Encoding: 278 733 231
Width: 336
VWidth: 0
Flags: W
HStem: 605 152
LayerCount: 2
Back
Fore
SplineSet
248.674804688 605 m 1
 341.767578125 757 l 1
 229.767578125 757 l 1
 165.674804688 605 l 1
 248.674804688 605 l 1
391.674804688 605 m 1
 484.767578125 757 l 1
 372.767578125 757 l 1
 308.674804688 605 l 1
 391.674804688 605 l 1
EndSplineSet
EndChar

StartChar: dagger
Encoding: 287 8224 240
Width: 453
VWidth: 0
Flags: W
HStem: 450 127<159.211 259.89 430.21 530.891>
LayerCount: 2
Back
Fore
SplineSet
560.2109375 577 m 1
 530.890625 450 l 1
 400.889648438 450 l 1
 284.0703125 -56 l 1
 143.0703125 -56 l 1
 259.889648438 450 l 1
 129.890625 450 l 1
 159.2109375 577 l 1
 289.209960938 577 l 1
 332.3828125 764.000976562 l 1
 473.3828125 764.000976562 l 1
 430.209960938 577 l 1
 560.2109375 577 l 1
EndSplineSet
EndChar

StartChar: daggerdbl
Encoding: 288 8225 241
Width: 453
VWidth: 0
Flags: W
HStem: 131 127<85.5635 186.243 356.563 457.243> 450 127<159.211 259.89 430.21 530.891>
LayerCount: 2
Back
Fore
SplineSet
332.3828125 764.000976562 m 1
 473.3828125 764.000976562 l 1
 430.209960938 577 l 1
 560.2109375 577 l 1
 530.890625 450 l 1
 400.889648438 450 l 1
 356.563476562 258 l 1
 486.563476562 258 l 1
 457.243164062 131 l 1
 327.243164062 131 l 1
 284.0703125 -56 l 1
 143.0703125 -56 l 1
 186.243164062 131 l 1
 56.2431640625 131 l 1
 85.5634765625 258 l 1
 215.563476562 258 l 1
 259.889648438 450 l 1
 129.890625 450 l 1
 159.2109375 577 l 1
 289.209960938 577 l 1
 332.3828125 764.000976562 l 1
EndSplineSet
EndChar

StartChar: perthousand
Encoding: 290 8240 243
Width: 897
VWidth: 0
Flags: W
HStem: 0 21G<67 163.703 487.448 493.617 518.585 521.617 745.448 751.617 776.585 779.617> 0 21G<67 163.703 487.448 493.617 518.585 521.617 745.448 751.617 776.585 779.617> 680 20G<280.088 283.101 307.088 313.269 641.704 731.607>
LayerCount: 2
Back
Fore
SplineSet
67 0 m 1xa0
 658.607421875 700 l 1
 731.607421875 700 l 1
 147 0 l 1
 67 0 l 1xa0
313.268554688 702.498046875 m 2
 358.303710938 699.934570312 397.75 657.302734375 368.013671875 528.5 c 0
 333.28515625 378.072265625 266.805664062 352.044921875 232.48828125 350.501953125 c 2
 230.903320312 350.430664062 l 1
 245.853515625 415.186523438 l 1
 247.071289062 415.459960938 l 2
 274.251953125 421.551757812 288.2578125 475.413085938 298.897460938 521.5 c 2
 305.708007812 551 l 2
 313.08203125 582.940429688 321.184570312 630.94140625 297.715820312 637.04296875 c 2
 296.637695312 637.323242188 l 1
 311.705078125 702.586914062 l 1
 313.268554688 702.498046875 l 2
284.705078125 702.586914062 m 1
 269.637695312 637.323242188 l 1
 268.430664062 637.04296875 l 2
 242.143554688 630.94140625 228.08203125 582.940429688 220.708007812 551 c 2
 213.897460938 521.5 l 2
 203.2578125 475.413085938 192.39453125 421.551757812 216.760742188 415.459960938 c 2
 217.853515625 415.186523438 l 1
 202.903320312 350.430664062 l 1
 201.3515625 350.501953125 l 2
 167.747070312 352.044921875 113.28515625 378.072265625 148.013671875 528.5 c 0
 177.634765625 656.80078125 236.875976562 699.93359375 283.100585938 702.498046875 c 2
 284.705078125 702.586914062 l 1
599.365234375 352.067382812 m 2
 644.400390625 349.50390625 683.846679688 306.872070312 654.110351562 178.069335938 c 0
 619.381835938 27.642578125 552.90234375 1.615234375 518.584960938 0.0712890625 c 2
 517 0 l 1x60
 531.950195312 64.7568359375 l 1
 533.168945312 65.029296875 l 2
 560.348632812 71.12109375 574.354492188 124.982421875 584.994140625 171.069335938 c 2
 591.8046875 200.569335938 l 2
 599.178710938 232.509765625 607.28125 280.510742188 583.8125 286.61328125 c 2
 582.734375 286.893554688 l 1
 597.801757812 352.15625 l 1
 599.365234375 352.067382812 l 2
570.801757812 352.15625 m 1
 555.734375 286.893554688 l 1
 554.52734375 286.61328125 l 2
 528.240234375 280.510742188 514.178710938 232.509765625 506.8046875 200.569335938 c 2
 499.994140625 171.069335938 l 2
 489.354492188 124.982421875 478.491210938 71.12109375 502.858398438 65.029296875 c 2
 503.950195312 64.7568359375 l 1
 489 0 l 1xa0
 487.448242188 0.0712890625 l 2
 453.84375 1.615234375 399.381835938 27.642578125 434.110351562 178.069335938 c 0
 463.731445312 306.370117188 522.97265625 349.50390625 569.197265625 352.067382812 c 2
 570.801757812 352.15625 l 1
857.365234375 352.067382812 m 2
 902.400390625 349.50390625 941.846679688 306.872070312 912.110351562 178.069335938 c 0
 877.381835938 27.642578125 810.90234375 1.615234375 776.584960938 0.0712890625 c 2
 775 0 l 1x60
 789.950195312 64.7568359375 l 1
 791.168945312 65.029296875 l 2
 818.348632812 71.12109375 832.354492188 124.982421875 842.994140625 171.069335938 c 2
 849.8046875 200.569335938 l 2
 857.178710938 232.509765625 865.28125 280.510742188 841.8125 286.61328125 c 2
 840.734375 286.893554688 l 1
 855.801757812 352.15625 l 1
 857.365234375 352.067382812 l 2
828.801757812 352.15625 m 1
 813.734375 286.893554688 l 1
 812.52734375 286.61328125 l 2
 786.240234375 280.510742188 772.178710938 232.509765625 764.8046875 200.569335938 c 2
 757.994140625 171.069335938 l 2
 747.354492188 124.982421875 736.491210938 71.12109375 760.858398438 65.029296875 c 2
 761.950195312 64.7568359375 l 1
 747 0 l 1xa0
 745.448242188 0.0712890625 l 2
 711.84375 1.615234375 657.381835938 27.642578125 692.110351562 178.069335938 c 0
 721.731445312 306.370117188 780.97265625 349.50390625 827.197265625 352.067382812 c 2
 828.801757812 352.15625 l 1
EndSplineSet
EndChar

StartChar: guilsinglleft
Encoding: 291 8249 244
Width: 338
VWidth: 0
Flags: W
LayerCount: 2
Back
Fore
SplineSet
272.434570312 500 m 1
 93.4130859375 292 l 1
 175.23828125 79 l 1
 330.23828125 79 l 1
 248.413085938 292 l 1
 427.434570312 500 l 1
 272.434570312 500 l 1
EndSplineSet
EndChar

StartChar: guilsinglright
Encoding: 292 8250 245
Width: 338
VWidth: 0
Flags: W
VStem: 44.2383 335.175
LayerCount: 2
Back
Fore
SplineSet
296.434570312 500 m 1
 379.413085938 292 l 1
 199.23828125 79 l 1
 44.23828125 79 l 1
 224.413085938 292 l 1
 141.434570312 500 l 1
 296.434570312 500 l 1
EndSplineSet
EndChar

StartChar: fraction
Encoding: 293 8260 246
Width: 560
VWidth: 0
Flags: W
HStem: 681.5 20G<602.553 695.954>
LayerCount: 2
Back
Fore
SplineSet
25.3125 -1.5 m 1
 619.456054688 701.5 l 1
 695.954101562 701.5 l 1
 108.83984375 -1.5 l 1
 25.3125 -1.5 l 1
EndSplineSet
EndChar

StartChar: fi
Encoding: 295 64257 248
Width: 494
VWidth: 0
Flags: W
HStem: 0 21G<89 215.617 335 461.617> 0 21G<89 215.617 335 461.617> 400 116<145.128 181.348 330.128 427.348> 558 145<500.837 580.259> 579 117<340.618 410.673>
LayerCount: 2
Back
Fore
SplineSet
613.447265625 630 m 0x30
 604.443359375 591 563.82421875 558 523.82421875 558 c 0
 483.82421875 558 458.443359375 591 467.447265625 630 c 0
 476.681640625 670 517.30078125 703 557.30078125 703 c 0
 597.30078125 703 622.681640625 670 613.447265625 630 c 0x30
216.439453125 552 m 2
 226.828125 597 300.453125 695 403.684570312 696 c 2
 464.684570312 696 l 1
 410.672851562 579 l 1
 377.672851562 579 l 2
 349.44140625 578 339.131835938 555 338.439453125 552 c 2
 330.127929688 516 l 1
 576.127929688 516 l 1
 457 0 l 1
 335 0 l 1
 427.34765625 400 l 1
 303.34765625 400 l 1
 211 0 l 1
 89 0 l 1xa8
 181.34765625 400 l 1
 118.34765625 400 l 1
 145.127929688 516 l 1
 208.127929688 516 l 1
 216.439453125 552 l 2
EndSplineSet
EndChar

StartChar: fl
Encoding: 296 64258 249
Width: 483
VWidth: 0
Flags: W
HStem: 0 21G<89 215.617 331 461.617> 0 21G<89 215.617 331 461.617> 400 116<145.128 181.348 329.897 369.348> 579 117<340.618 464.673>
LayerCount: 2
Back
Fore
SplineSet
457 0 m 1xb0
 331 0 l 1
 464.672851562 579 l 1
 377.672851562 579 l 2
 349.44140625 578 339.131835938 555 338.439453125 552 c 2
 329.897460938 515 l 1
 396.127929688 516 l 1
 369.34765625 400 l 1
 303.34765625 400 l 1
 211 0 l 1
 89 0 l 1
 181.34765625 400 l 1
 118.34765625 400 l 1
 145.127929688 516 l 1
 208.127929688 516 l 1
 216.439453125 552 l 2
 226.828125 597 300.453125 695 403.684570312 696 c 2
 617.684570312 696 l 1
 457 0 l 1xb0
EndSplineSet
EndChar
